<?xml version="1.0" encoding="UTF-8"?>
<svg id="Layer_1" xmlns="http://www.w3.org/2000/svg" version="1.1" xmlns:xlink="http://www.w3.org/1999/xlink" viewBox="0 0 203.52 203.52">
  <!-- Generator: Adobe Illustrator 30.1.0, SVG Export Plug-In . SVG Version: 2.1.1 Build 136)  -->
  <defs>
    <style>
      .st0 {
        fill: #426169;
      }

      .st1 {
        fill: #5c656d;
      }

      .st2 {
        fill: #949393;
      }

      .st3 {
        fill: url(#linear-gradient2);
      }

      .st4 {
        fill: #7c7c7c;
      }

      .st5 {
        fill: #7b7b7b;
      }

      .st6 {
        fill: #4c5660;
      }

      .st7 {
        fill: #6b6a6a;
      }

      .st8 {
        fill: #656f76;
      }

      .st9 {
        fill: #c3c3c3;
      }

      .st10 {
        fill: #9a9a9a;
      }

      .st11 {
        fill: #fcfcfc;
      }

      .st12 {
        fill: #353333;
      }

      .st13 {
        fill: #b8b8b8;
      }

      .st14 {
        fill: #d7d7d7;
      }

      .st15 {
        fill: #a7a7a7;
      }

      .st16 {
        fill: #7d7d7d;
      }

      .st17 {
        fill: #f6f6f6;
      }

      .st18 {
        fill: #c2c2c2;
      }

      .st19 {
        fill: #bdc1c5;
      }

      .st20 {
        fill: #bababa;
      }

      .st21 {
        fill: #b0b7bd;
      }

      .st22 {
        fill: #a4a4a4;
      }

      .st23 {
        fill: #67737e;
      }

      .st24 {
        fill: url(#linear-gradient1);
      }

      .st25 {
        fill: #f0f0f0;
      }

      .st26 {
        fill: #cdcdcd;
      }

      .st27 {
        fill: url(#linear-gradient9);
      }

      .st28 {
        fill: #bbc0c3;
      }

      .st29 {
        fill: #868d95;
      }

      .st30 {
        fill: #94a0a6;
      }

      .st31 {
        fill: #4b555f;
      }

      .st32 {
        fill: #939a9d;
      }

      .st33 {
        fill: #cecece;
      }

      .st34 {
        fill: #4e5762;
      }

      .st35 {
        fill: #969da4;
      }

      .st36 {
        fill: #516165;
      }

      .st37 {
        fill: #e9e9e9;
      }

      .st38 {
        fill: #b8bdc2;
      }

      .st39 {
        fill: #b4b9be;
      }

      .st40 {
        fill: url(#linear-gradient8);
      }

      .st41 {
        fill: #8a8f95;
      }

      .st42 {
        fill: #aab0b4;
      }

      .st43 {
        fill: #5a656e;
      }

      .st44 {
        fill: #617174;
      }

      .st45 {
        fill: #e2e2e2;
      }

      .st46 {
        fill: #e5e5e5;
      }

      .st47 {
        fill: #4e5b66;
      }

      .st48 {
        fill: #b2b2b2;
      }

      .st49 {
        fill: #d5d5d5;
      }

      .st50 {
        fill: #5d666f;
      }

      .st51 {
        fill: #e0e0e0;
      }

      .st52 {
        fill: #8e8e8e;
      }

      .st53 {
        fill: #b3b7bc;
      }

      .st54 {
        fill: #979da4;
      }

      .st55 {
        fill: #999898;
      }

      .st56 {
        fill: #646d76;
      }

      .st57 {
        fill: #a0a0a0;
      }

      .st58 {
        fill: #464f5b;
      }

      .st59 {
        fill: #e3e3e3;
      }

      .st60 {
        fill: #4f5862;
      }

      .st61 {
        fill: #92999f;
      }

      .st62 {
        fill: #959da5;
      }

      .st63 {
        fill: #b0b0b0;
      }

      .st64 {
        fill: #c4c4c4;
      }

      .st65 {
        fill: #acacac;
      }

      .st66 {
        fill: #505d69;
      }

      .st67 {
        fill: #555f6a;
      }

      .st68 {
        fill: #f1f1f1;
      }

      .st69 {
        fill: #bbc0c5;
      }

      .st70 {
        fill: silver;
      }

      .st71 {
        fill: #d3d3d3;
      }

      .st72 {
        fill: #49555f;
      }

      .st73 {
        fill: #c3c6ca;
      }

      .st74 {
        fill: #505964;
      }

      .st75 {
        fill: url(#linear-gradient7);
      }

      .st76 {
        fill: #50635f;
      }

      .st77 {
        fill: url(#linear-gradient4);
      }

      .st78 {
        fill: #969696;
      }

      .st79 {
        fill: #6d7578;
      }

      .st80 {
        fill: #9ea5ab;
      }

      .st81 {
        fill: #4f5d66;
      }

      .st82 {
        fill: #717171;
      }

      .st83 {
        fill: #fcfcfd;
      }

      .st84 {
        fill: #b6bbbd;
      }

      .st85 {
        fill: #8d9599;
      }

      .st86 {
        fill: url(#linear-gradient5);
      }

      .st87 {
        fill: #49535e;
      }

      .st88 {
        fill: #eee;
      }

      .st89 {
        fill: #999;
      }

      .st90 {
        fill: url(#linear-gradient3);
      }

      .st91 {
        fill: #68717a;
      }

      .st92 {
        fill: #6d7d84;
      }

      .st93 {
        fill: #4b545f;
      }

      .st94 {
        fill: #858585;
      }

      .st95 {
        fill: #b4b4b4;
      }

      .st96 {
        fill: #495560;
      }

      .st97 {
        fill: #7e858e;
      }

      .st98 {
        fill: #505963;
      }

      .st99 {
        fill: #c7c7c7;
      }

      .st100 {
        fill: #344543;
      }

      .st101 {
        fill: #dedede;
      }

      .st102 {
        fill: #525c66;
      }

      .st103 {
        fill: #cfcfcf;
      }

      .st104 {
        fill: #ccc;
      }

      .st105 {
        fill: #f4f4f4;
      }

      .st106 {
        fill: #b3b3b3;
      }

      .st107 {
        fill: #515d66;
      }

      .st108 {
        fill: #f3f5f5;
      }

      .st109 {
        fill: #5f6871;
      }

      .st110 {
        fill: #c1c1c1;
      }

      .st111 {
        fill: #939ba2;
      }

      .st112 {
        fill: #a9a9a9;
      }

      .st113 {
        fill: #b9b9b9;
      }

      .st114 {
        fill: #545e68;
      }

      .st115 {
        fill: #aeaeae;
      }

      .st116 {
        fill: #adb2b7;
      }

      .st117 {
        fill: #515c65;
      }

      .st118 {
        fill: url(#linear-gradient6);
      }

      .st119 {
        fill: #aaa;
      }

      .st120 {
        fill: #7a8189;
      }

      .st121 {
        fill: #959494;
      }

      .st122 {
        fill: #c6c6c6;
      }

      .st123 {
        fill: #dcdcdc;
      }

      .st124 {
        fill: #fbfbfc;
      }

      .st125 {
        fill: #dadada;
      }

      .st126 {
        fill: #e4e4e4;
      }

      .st127 {
        fill: #ececec;
      }

      .st128 {
        fill: #fefdfe;
      }

      .st129 {
        fill: #bcbcbc;
      }

      .st130 {
        fill: #fefefe;
      }

      .st131 {
        fill: #ededed;
      }

      .st132 {
        fill: #d4d4d4;
      }

      .st133 {
        fill: #cfcfd1;
      }

      .st134 {
        fill: #9a9aa1;
      }

      .st135 {
        fill: #eaeaea;
      }

      .st136 {
        fill: #f8f8f8;
      }

      .st137 {
        fill: #fcfdfe;
      }

      .st138 {
        fill: url(#linear-gradient);
      }

      .st139 {
        fill: #535d69;
      }

      .st140 {
        fill: #576069;
      }

      .st141 {
        fill: #d1d1d1;
      }

      .st142 {
        fill: #9ea1a3;
      }

      .st143 {
        fill: #f7f9fa;
      }

      .st144 {
        fill: #565d66;
      }

      .st145 {
        fill: #d9d9d9;
      }

      .st146 {
        fill: #8b929a;
      }

      .st147 {
        fill: #bebebe;
      }

      .st148 {
        fill: #fdfdfd;
      }

      .st149 {
        fill: #969595;
      }

      .st150 {
        fill: #a2a9b1;
      }

      .st151 {
        fill: #b5b5b5;
      }

      .st152 {
        fill: #f3f3f3;
      }

      .st153 {
        fill: #e8e8e8;
      }

      .st154 {
        fill: #e6e6e6;
      }

      .st155 {
        fill: #989898;
      }

      .st156 {
        fill: #707e88;
      }

      .st157 {
        fill: #afafaf;
      }
    </style>
    <linearGradient id="linear-gradient" x1="-646.9" y1="1136.71" x2="-1349.47" y2="1345.71" gradientTransform="translate(135.94 -609.7) scale(.62)" gradientUnits="userSpaceOnUse">
      <stop offset="0" stop-color="#878d94"/>
      <stop offset=".3" stop-color="#b0b4b7"/>
      <stop offset="1" stop-color="#cfd1d2"/>
    </linearGradient>
    <linearGradient id="linear-gradient1" x1="-606.7" y1="921.64" x2="-380.13" y2="947.14" gradientTransform="translate(205.92 -154.08) scale(.24)" gradientUnits="userSpaceOnUse">
      <stop offset="0" stop-color="#e1e1e1"/>
      <stop offset=".31" stop-color="#fdfdfd"/>
      <stop offset=".73" stop-color="#707070"/>
      <stop offset="1" stop-color="#2d2c2c"/>
    </linearGradient>
    <linearGradient id="linear-gradient2" x1="-566.73" y1="1063.96" x2="-376.45" y2="1089.6" gradientTransform="translate(205.92 -154.08) scale(.24)" gradientUnits="userSpaceOnUse">
      <stop offset="0" stop-color="#e3e3e3"/>
      <stop offset=".28" stop-color="#fdfdfd"/>
      <stop offset=".6" stop-color="#696969"/>
      <stop offset="1" stop-color="#292727"/>
    </linearGradient>
    <linearGradient id="linear-gradient3" x1="-514.31" y1="1077.41" x2="-304.56" y2="1100.36" gradientTransform="translate(205.92 -154.08) scale(.24)" gradientUnits="userSpaceOnUse">
      <stop offset="0" stop-color="#e9e9e9"/>
      <stop offset=".25" stop-color="#fdfdfd"/>
      <stop offset=".72" stop-color="#6e6e6e"/>
      <stop offset="1" stop-color="#2d2b2b"/>
    </linearGradient>
    <linearGradient id="linear-gradient4" x1="-547.13" y1="952.53" x2="-333.54" y2="1020.04" gradientTransform="translate(205.92 -154.08) scale(.24)" gradientUnits="userSpaceOnUse">
      <stop offset="0" stop-color="#bfbfbf"/>
      <stop offset=".11" stop-color="#676767"/>
      <stop offset=".26" stop-color="#2b2929"/>
      <stop offset="1" stop-color="#272525"/>
    </linearGradient>
    <linearGradient id="linear-gradient5" x1="-427.94" y1="1223.09" x2="-228.15" y2="1245.06" gradientTransform="translate(205.92 -154.08) scale(.24)" gradientUnits="userSpaceOnUse">
      <stop offset="0" stop-color="#ededed"/>
      <stop offset=".21" stop-color="#fdfdfd"/>
      <stop offset=".7" stop-color="#6e6e6e"/>
      <stop offset="1" stop-color="#2c2b2b"/>
    </linearGradient>
    <linearGradient id="linear-gradient6" x1="-447.28" y1="1101.76" x2="-258.9" y2="1165.91" gradientTransform="translate(205.92 -154.08) scale(.24)" gradientUnits="userSpaceOnUse">
      <stop offset="0" stop-color="#787878"/>
      <stop offset=".23" stop-color="#282626"/>
      <stop offset="1" stop-color="#272525"/>
    </linearGradient>
    <linearGradient id="linear-gradient7" x1="-556.93" y1="830.25" x2="-371.07" y2="837.31" gradientTransform="translate(205.92 -154.08) scale(.24)" gradientUnits="userSpaceOnUse">
      <stop offset="0" stop-color="#b0b0b0"/>
      <stop offset=".18" stop-color="#6b6b6b"/>
      <stop offset=".63" stop-color="#282626"/>
      <stop offset="1" stop-color="#272525"/>
    </linearGradient>
    <linearGradient id="linear-gradient8" x1="-592.93" y1="1025.44" x2="-658.93" y2="1025.45" gradientTransform="translate(205.92 -154.08) scale(.24)" gradientUnits="userSpaceOnUse">
      <stop offset="0" stop-color="#f5f5f5"/>
      <stop offset="1" stop-color="#e1e1e1"/>
    </linearGradient>
    <linearGradient id="linear-gradient9" x1="-419.51" y1="1166.45" x2="-295.1" y2="1186.4" gradientTransform="translate(205.92 -154.08) scale(.24)" gradientUnits="userSpaceOnUse">
      <stop offset="0" stop-color="#e3e3e3"/>
      <stop offset=".4" stop-color="#6a6a6a"/>
      <stop offset="1" stop-color="#2a2828"/>
    </linearGradient>
  </defs>
  <g id="Generative_Object">
    <path class="st92" d="M-683.01,160.68c.14.68-.71.53-.72.85,0,.34.02.88.34.9.29.01.6-.34.89-.05.1.23.03.6.05.97.01.21-.42.4-.87.36-.3-.03-.28-.62-1-.65-.4-1.66-1.58-3.54-3.11-4.35.05-.59-1.05-.77-.14-1.46,1.07.44,1.23,1.46,2,1.46.35.59.49,1.35,1.21,2.16.88-.59.89-1.64.65-2.16-.47-1.02-1.22-2.12-.22-3.24,1.53,1.69.57,3.57.9,5.22Z"/>
    <path class="st156" d="M-688.66,159.94c1.63.77,2.36,3.05,4.35,3.11-.04.3.12.68,0,.94-.23.49-.79.31-1.24.31.18-.81-1.02-.84-1.24-1.24-.66-1.21-3.36-2.39-4.38-3.47,1.01-.57,1.75.49,2.52.36Z"/>
    <path class="st148" d="M-684.31,163.05c-1.99-.06-2.72-2.34-4.35-3.11.43.02,1.02.16,1.22-.29.12-.28,0-.69.02-.95,1.53.81,2.71,2.69,3.11,4.35Z"/>
    <path class="st148" d="M-683.69,158.7c.24.51.23,1.57-.65,2.16-.73-.81-.86-1.56-1.21-2.16h1.86Z"/>
    <g>
      <path class="st148" d="M-681.83,160.56c.08.42-.47.78-.1,1.17-.45-.26-.77.2-.56.64-.29-.29-.6.06-.89.05-.33-.01-.35-.56-.34-.9,0-.32.85-.17.72-.85l1.18-.12Z"/>
      <path class="st85" d="M-686.8,164.91c.72-.05.77.64,0,.62h-.62l-1.94-.97c1.27-.81,1.8.07,2.57.35Z"/>
      <g>
        <g>
          <path class="st114" d="M-652.02,135.04c.21.65.71,1.6,1.26,1.91.46.26.24,1.8.84,1.93.18.75,1.09,2.83.45,3.66-4.76,4.35-11.01,6.31-16.05,9.43-.24-.83-.06-1.9-.72-2.56.77-1.65-.51-4.15.57-5.66l1-1.39c.8-1.11.86-30.38.57-33.22-.12-1.15-1.24-.12-1.11.67.05.29-.44-.24-.45-.07.62-1.37.21-3.41,1.77-4.7,2.42,6.8,4.67,12.95,7.91,18.96-2.18,2.05,2.06,3.78,2.75,7.18-.53.4-2.17.66-1.81,1.26.89,1.27,2.06,1.93,3.03,2.59Z"/>
          <path class="st120" d="M-666.24,149.41c-4.24,1.83-8.81-.64-10.88-4.48-3.87-7.17,4.22-12.62,4.48-13.27.27-.7-1.48-.8-1.55-1.22-.36-2.24,1.5-4.23,3.11-5.69.68-.61-.67-1.51-.43-2.05l5.87-12.94c0-.17.49.36.45.07-.13-.8,1-1.82,1.11-.67.29,2.84.23,32.11-.57,33.22l-1,1.39c-1.09,1.51.19,4.01-.57,5.66Z"/>
        </g>
        <path class="st47" d="M-583.64,108.37c0,.23.25.74.14.95-.1.19-.69.38-.66.74.51.51,1.44.71,1.17,1.4-12.43,4.12-24.84,8.82-36.2,14.98-.58-1.47-.04-3.1.49-5.47-.15,1.04-.46.25-.71-.07-.35-.45-.31-.59-.15-.91,2.07.21,4.02-.74,6.07-.05-1.28-1.04-2.6-1.13-3.06-2.29.52-.24,1.21-.48,1.74-.12.25.17,1.08.36,1.29-.17-.02.05-1.06-1.41-1.25-.93-.02-.48-.62-1-.57-1.52.06-.64.94-.24,1.19-.37.39.9,1.31,1.4,2.11,2.14.13-1.14-.44-1.96-.85-2.8-.19-.4-.25-.49.14-.8.85-.55,1.2.5,1.5.91.46.62.46,1.58.48,2.47,1.22-1.08,1-2.89,2.73-3.56.26,1.31-.68,2.13-.65,3.77,1.29-.95,1.45-2.26,2.45-3.47.94,1.13.21,1.98,1,3.2,1.35-1.64,3.92-.16,5.28-.99,1.66-1.02-.59-4.05-1.51-5.09,2.73.23,3.41,2.68,4.62,4.11.27-1.54-1.32-2.36-.36-3.12,1.7,1.44-.07-2.15,1.35-3.07l3.09,2.5c.54-1.24.62-3.22,1.96-2.59.37.18-.22,2.1.74,1.39.91-1.09.86-2.45,2.1-2.4.44.63.85,1.05.12,1.79-.26.26-.77.71-.69,1.55,1.87-.73,3.15-1.97,4.9-2.12Z"/>
        <path class="st148" d="M-619.56,120.01c.53-1.08,2.08-1.03,2.32-2.35.21.07.48.11.69.01.45,1.17,1.77,1.25,3.06,2.29-2.05-.69-4,.25-6.07.05Z"/>
        <path class="st148" d="M-614.14,114.56l1.27-.66c.4.84.97,1.66.85,2.8-.8-.74-1.73-1.24-2.11-2.14Z"/>
        <g>
          <path class="st42" d="M-617.24,117.66c-.24,1.33-1.8,1.27-2.32,2.35-.15.32-.19.46.15.91.25.32.56,1.11.71.07-.53,2.37-1.07,3.99-.49,5.47l-16.43,8.91-12.44,6.47c-1.29-.83-.21-3.06-1.87-2.95-.6-.13-.38-1.67-.84-1.93,1.03-.06.34-.53.03-.96-.22-.31.15-1.07-.52-.91-2.22-5.68,3.2-8.44,5.39-11.81s1.17-9.74,6.94-12.04c4.38-1.75,10.08-2.74,13.89,1.31,3.45,3.67,2.65-1.44,7.8,5.11Z"/>
          <path class="st148" d="M-650.76,136.95c-.55-.31-1.04-1.26-1.26-1.91.25.05.51.07.76.05.67-.17.3.6.52.91.31.43,1,.9-.03.96Z"/>
        </g>
      </g>
      <path class="st148" d="M-614.81,117.55c-.23-.38.18-.72.04-1.1.18-.47,1.23.98,1.25.93-.22.53-1.04.34-1.29.17Z"/>
      <path class="st148" d="M-706.68,205.28c-.22.14-.32.38-.61.18l-.02-.71c.31-.05.77.05.63.53Z"/>
      <path class="st148" d="M-258.64,130.19c-.27-.14-.54-.15-.64-.4-.26-.61.42-1.09.74-.89.3.43-.2.84-.1,1.29Z"/>
      <path class="st148" d="M-433.19-79.87c.06-.41-.26-.9.04-1.3.42-.04.71.43.52.92-.1.26-.2.63-.56.37Z"/>
      <path class="st148" d="M-685.56,164.29h-1.24v-1.24c.22.4,1.43.43,1.24,1.24Z"/>
      <path class="st148" d="M-687.47,166.78c-.27-.35.08-.76.05-1.25h.62c-.03.35.08.66,0,.93s-.39.37-.67.32Z"/>
      <path class="st128" d="M-328.99,110.23c.45-.19.9-.12,1.37-.02-.68,6.98,8.16,12.09,13.64,13.98.24.47-.52.88-.1,1.29-1.41-.77-3.37-1.05-4.83-1.6-.45-1.93-10.95-4.1-14.24-6.43.26-1.86-.15-4,.5-5.97.5-1.5,2.66-.83,3.66-1.25Z"/>
      <g>
        <path class="st50" d="M-261.7,193.76c-2.69.52-5.39.81-8.23,2.02l18.27,12.83-39.94-11.26c-52.04-14.67-104.93-22.15-159.1-18.02-44.3,3.38-87.66,11.42-129.72,25.56l-22.65,7.61c-8.2-9.92-31.99-12.34-40.21-9.54-.24-.16-.68-.03-1.14-.63,2.56-1.42,5.4-2.5,8.64-3.37,17.33-4.68,33.73-10.35,50.85-16.05l31.16-10.38,27-9.26c-7.25-2.21-17.31.39-24.82.65l40.76-14.33c2.88-1.01,5.44-1.94,8.51-3.25-3.81-2.11-7.26-2.3-11.16-2.76-18.47-2.17-40.18-2.01-57.69.83.22-.99,1.34-.5.8-1.13,61.16-18.63,119.46-25.07,182.41-5.56,19.48,6.04,37.74,13.28,55.59,22.6l40.29,21.02,28.5,11.29c.77.3,1.82.32,1.87,1.15Z"/>
        <path class="st41" d="M-643.29,202.96l-9.42,3.2c-10.32,3.5-7.85-6.73-23-6.7-11.44.02-23.69,4.17-33.48,8.23.04-1.78,1.62-1.34,1.9-2.22.29.2.39-.04.61-.18,28.92-18.08,59.51-33.63,91.36-46.44.53-.21,1.07-.07,1.28-.46.11-.21.06-.4.02-.74l7.51-2.36c-1.58-.43-2.79-.93-3.79-2.06,8.6-5.59,29.62-11.6,39.95-9.94.54.63-.58.14-.8,1.13,17.5-2.84,39.21-3,57.69-.83,3.9.46,7.35.65,11.16,2.76-3.07,1.31-5.63,2.24-8.51,3.25l-40.76,14.33c7.51-.25,17.57-2.86,24.82-.65l-27,9.26-31.16,10.38c-17.11,5.7-33.52,11.37-50.85,16.05-3.25.88-6.08,1.96-8.64,3.37.45.61.9.47,1.14.63Z"/>
        <g>
          <path class="st138" d="M-469.94,93.43c-.39.64-.21,2.04.88,2.22l10.14,1.7c.91.15.21,1.2.17,1.68-.78.56-1.74.83-2.54,1.85,3.6-.74,10.94,1.5,8.93-1.41.55-.58,1.25-.71,2.37-.48,21.24,4.51,41.48,11.51,61.34,20.48,8.72-5.61,28.97-5.79,36.14-3.99,6.35,1.6,12.44,4.22,19.32,5.45,4.98.88,9.62,2.83,14.29,2.94,1.47.56,3.42.83,4.83,1.6,5.49,3.02,11.13,6.51,16.9,8.46.23.78,1.03,1.32,1.65,1.66,1.01.56,1.84.95,2.71.07-.33,1.84,8.69,6.3,9.89,6.76,1.61.62,2.59,2.43,4.39,2.62.2.81,1.26.94,1.88,1.21.05.7.72,1.08,1.3,1.23,1.9.48,3.6,3.04,5.5,3.15.67.28,1.46,1.58,2.46,1.24,17.05,13.8,35.35,26.41,51.31,42.56-13.92-1.79-17.88-9.43-32.69-1.05-4.01,1.2-8.93-.41-12.91.35-.05-.83-1.1-.85-1.87-1.15l-28.5-11.29-40.29-21.02c-17.86-9.32-36.12-16.56-55.59-22.6-62.95-19.51-121.25-13.07-182.41,5.56-10.33-1.66-31.35,4.35-39.95,9.94-2.21,1.44-5.93,1.12-7.72,4.79,1.07-.05,2.91-.02,4-.37.05.34.09.53-.02.74-.2.4-.74.25-1.28.46-31.85,12.81-62.44,28.36-91.36,46.44.13-.48-.32-.59-.63-.53l-8.79-5.59c-3.63-2.31-7.31-3.45-12-4.52l40.63-27.87c.28.05.58-.03.67-.32s-.03-.58,0-.93c.77.02.72-.67,0-.62v-.62h1.24c.45,0,1.01.19,1.24-.31.12-.26-.04-.64,0-.94.73.03.71.62,1,.65.45.04.88-.15.87-.36-.02-.36.05-.74-.05-.97-.2-.44.11-.9.56-.64.12.89.77.74.89-.07,5.83-1.78,10.55-6.62,15.52-9.7,5.04-3.13,11.29-5.08,16.05-9.43.64-.83-.27-2.91-.45-3.66,1.66-.11.58,2.12,1.87,2.95l12.44-6.47,16.43-8.91c11.36-6.16,23.77-10.86,36.2-14.98,27.9-9.25,56.54-15.37,86.26-17.47,1.11-.08,1.71-.25,2.07-.78.42-.61.37-1.33.38-2.28l.44-39.16.41,42.09c8.14-.89,15.88-.55,23.48-.44Z"/>
          <g>
            <path class="st0" d="M-681.04,161.67c-.12.81-.77.96-.89.07-.37-.39.18-.75.1-1.17-.06-.44.22-.73.39-.57.08.07.93,2.28.4,1.67Z"/>
            <g>
              <path class="st137" d="M-539.14,122.59c-6.32.41-12.09.7-18.52,2.06,2.02-5.61,7.95-7.63,13.01-5.49,1.96.83,4.08,1.36,5.51,3.43Z"/>
              <path class="st8" d="M-610.31,153.21c1,1.13,2.21,1.64,3.79,2.06l-7.51,2.36c-1.1.35-2.94.32-4,.37,1.79-3.67,5.51-3.35,7.72-4.79Z"/>
              <path class="st144" d="M-452.37,99.48c2.01,2.91-5.33.67-8.93,1.41.8-1.02,1.76-1.29,2.54-1.85,2.01-1.44,4.37-.86,6.38.44Z"/>
              <path class="st1" d="M-311.34,140.65c-2.21-.38-3.47-1.59-5.3-2.39-.22-.93-.05-1.24.29-1.57.72-.7,1.91-.79,2.53.06.83,1.12,1.95,1.95,2.48,3.9Z"/>
            </g>
            <path class="st124" d="M-275.28,145.82c0,.54.04,1.15-.09,1.68-.58-.15-1.25-.53-1.3-1.23-.08-.38.14-.58.36-.64.33-.09.8.16,1.03.19Z"/>
          </g>
        </g>
      </g>
      <g>
        <path class="st148" d="M-426.53-73.71c-2.31,9.37-5.8,18.77-9.89,27.92-.77,1.72-1.42,2.82-1.12,4.42-.6-.29-.69-.53-.68-1.29l.11-21.73c.01-2.58,5.28-7.27,5.15-12.3.65.32,1.5.34,1.99.62s-.36,1.89.29,2.13c1.42.52,2.92.14,4.17.24Z"/>
        <g>
          <path class="st74" d="M-410.93-38.29c-5.54-1.83-11.54-1.96-17.32-3.05,2.13-11.22,2.75-22.82,2.89-34.24.03-2.26.38-4.58-.21-7.01-1.79.51-4.27,1.62-4.95.04-1.48-.47,5.55-2.97,6.76-2.19.78.5,2.25,1.05,2.2,2.6-.88.51-1.83.29-2.59.59-.97,2.93-.15,5.15.79,7.86,4.19,12.15,8.73,23.74,14.9,34.9-1.08.47-1.96.58-2.47.5Z"/>
          <path class="st97" d="M-428.24-41.33c-2.56-.48-5.95,1.6-8.13.53l-1.17-.57c-.3-1.6.36-2.71,1.12-4.42,4.09-9.14,7.58-18.55,9.89-27.92.74-.32.32-1.64,1.18-1.86-.13,11.42-.76,23.02-2.89,34.24Z"/>
        </g>
        <path class="st69" d="M-481.87-134.69l.1,11.89c0,.84-.42,2.28.67,2.49-2.06,3.85-4.77,7.26-7.48,10.56.53-8.53.9-17.25.18-25.62-.04-.41.07-1.09-.15-1.6,1.01-.42,1.55.03.64,1.05,1.92.79,3.99.8,6.04,1.24Z"/>
        <path class="st140" d="M-481.87-134.69c-2.06-.45-4.13-.45-6.04-1.24.9-1.02.37-1.47-.64-1.05.22.51.11,1.19.15,1.6-.89-.22-2.22.53-3.32.69-.8.12-1.92-2.51-1.27-2.96,3.18-2.2,7.72-2.66,11.25-.58,1.08.64-.13,2.64-.12,3.53Z"/>
        <path class="st148" d="M-398.61,21.93l-.45,7.05c-1.73.07-3.26-.33-5.07-.71-.23-2.55-.11-4.71.04-6.87,1.55-.74,3.92.77,5.47.53Z"/>
        <g>
          <path class="st73" d="M-435.78-100.88c.68-.22,2.35.87,2.4,1.72.43,6.19.2,12.15.22,18-.3.4.02.89-.04,1.3-.16,1.09.18,2.11.21,3.17.14,5.03-5.13,9.73-5.15,12.3l-.11,21.73c0,.76.09,1,.68,1.29l1.17.57c2.18,1.07,5.57-1.01,8.13-.53,5.78,1.08,11.77,1.22,17.32,3.05l-.4,57.49c2.7.91,5.35.83,7.24,2.2-.15,2.16-.27,4.31-.04,6.87,1.81.38,3.34.78,5.07.71l.45-7.05c2.55-.4,5.04.75,7.61.75-.09.83.64.43,1.43.52l-.1,7.5c1.65.65,3.3.8,5.09.92l.35-7.77c3.07.54,5.83.84,8.82,1.87.39,2.48-.38,4.86.34,7.07.85.87,2.94.87,4.38.8l.31-7.28,6.1.77c1.12.14,1.91.54,2.43,1.2-.49.1-.55.44-.55,1.24l-.08,62.02-.31,12.43-.87,3.14c-.41,1.47,10.17,2.86,12.53,4.26l-1.72,1.97c-.59.68.18,1.31.33,2.16-7.17-1.8-27.42-1.63-36.14,3.99-19.86-8.97-40.11-15.97-61.34-20.48-1.12-.24-1.82-.1-2.37.48-2.02-1.31-4.37-1.88-6.38-.44.03-.48.74-1.52-.17-1.68l-10.14-1.7c-1.09-.18-1.27-1.58-.88-2.22,5.88.09,12.01-.81,18.2-.28V-68.25c-13.1-1.99-30.81-1.25-41.72,2.73-.33-.37-.22-.83-.51-1.22,1.21-.18,2.63-.84,2.96-2.1.64.4.95.75,1.55.85,1.12.19,1.52-.63,1.53-1.34,1.53.21,2.87-1.24,4.39-.65-.16.32-.15.59-.06.93.17.63.49.18.98-.48.84.22,3.97.7,3.93-.94-.08-2.89-1.63-6.06-.7-8.41.59-1.05,3.87-1.07,4.62-.16,1.27,1.9,1.13,4.86,1.96,7.33l-4.44.79c-.5.09-.09.95.3,1.01l1.45.23c2.27.36,4.43-.74,6.83-.43.13-2.77-.44-6.38.67-9.17.5-1.16,4.22-1.05,4.94-.03,1.37,1.92.19,5.76.05,7.87-2.16.08-4.12-1.32-5.44,1.24l10.94.17c.45,0,.72-.9.28-1.06,1.21.09,2.49.33,3.84.15,1.91-7.58,3.07,1.22.84-9.08-.05-.42.19-.85.42-1.15.47-.62.81-.12,1.27-.15-1.51-7.42,1.38-7.82-1.11-14.74-.76-2.1.29-4.41-.33-6.97,2.91.13,5.71.32,8.62,1.23l-.25,6.36c-.03.84.58,1.22,1.03,1.37,2.81.97.71-5.48,1.85-7.38,1.72.12,3.9,1.01,5.28.57Z"/>
          <g>
            <path class="st93" d="M-395.36,76.13c4.07.84,6.8,5.63,6.81,9.86l.05,15.02c-3.83.26-7.59-1.52-12.06-2,.58-6.65-2.22-20.64,5.2-22.89Z"/>
            <path class="st108" d="M-388.49,101.01l-.05-15.02c-.01-4.24-2.75-9.03-6.81-9.86l-.49-1.15c-.55-1.3,5.02-2.84,7.43-.72,3.74,3.29,5.65,7.99,5.53,12.97-.12,5.24.23,10.13-.2,15.26-1.99-.39-4.13-.53-5.41-1.48Z"/>
            <path class="st23" d="M-404.07,58.87c-1.51.53-2.43-.05-3.81-.37.22-3.18-1.17-10.57,1.65-11.34,3.45-.94,2.18,8.6,2.15,11.71Z"/>
            <path class="st137" d="M-414.5,26.38c-1.75.51-3.03-.14-4.95-.44.1-2.15-.19-4.21.41-6.31.37-1.28,4.04-1.76,4.42-.44.69,2.43-.13,4.33.13,7.19Z"/>
            <path class="st80" d="M-425.98,24.06c-1.2.7-2.36.5-3.54-.2l.24-6.76c1.18-.27,2.24-.13,3.47.58l-.17,6.38Z"/>
            <g>
              <path class="st58" d="M-382.52,62.54c-1.9.04-3.01-.18-4.44-.61l.17-9.49c.02-1.27.84-2.11,1.54-2.61.57-.4,2.56-.75,2.65.26.34,4.08.06,8.05.08,12.45Z"/>
              <path class="st66" d="M-364.38,102.16c.49,1.28.69,3.09-.14,4.21-.55.75-2.35,0-2.65-.76-.37-.92-1.26-2.16-.35-3.28.96.76.88,1.85,1.65,2.97l1.49-3.14Z"/>
            </g>
            <path class="st134" d="M-415.6,82.74c.27-.83,1.22-.53,1.45-.14s-.08.73-.33,1.2c-.37.69-1.45-.03-1.11-1.06Z"/>
            <g>
              <path class="st72" d="M-425.39-3.09c-1.72.43-3.03-.25-5.02-.39.02-3.38-1.46-10.4,2.41-11.01s2.31,8.23,2.6,11.4Z"/>
              <path class="st143" d="M-430.41-32.76c-.37.89-1.49.67-1.85.52-.4-.17-.26-.95-.08-1.82-1.24-.97-3.64.33-5.15-.19-1.1-.62-1.07-4.16-.08-4.81,2.09-.94,5.51-1.55,7.44-.82.5.19-.09,2.19-.46,2.18s-1.03-.04-1.31.54-.13,1.2-.08,1.46c.05.24.17.33.76.33.25,0,.04-.66.79-1.07.46.95.57,2.35.01,3.69Z"/>
              <path class="st79" d="M-418.13-33.67c.21-.45.58.25.77.4.49.4.29,1.15-.09,1.21-.85.15-1.27-.36-.68-1.61Z"/>
            </g>
            <path class="st142" d="M-427.94,45.72c.4-.17.47,1.62-.04,1.76-.44.12-.83-.02-.93-.33-.16-.5.16-1.08.98-1.43Z"/>
            <g>
              <path class="st62" d="M-444.59-70.08c-.59,1.09-2.87,0-3.54-.63.85-2.17,1.95-7.38,3.88-7.35.81,0,2.54.33,2.11,1.85-.57,2.02-1.3,4.03-2.45,6.13Z"/>
              <circle class="st44" cx="-443.12" cy="-57.47" r=".61"/>
            </g>
          </g>
        </g>
        <g>
          <path class="st148" d="M-475.46-103.49c-.03,2.38-.29,4.72.14,7.31,1.13.15,4.02.74,4.13-.41l.67-6.78c.96.04,1.82-.16,2.45-.09l11.49,1.29c.62,2.04-.49,4.19.6,5.89.65,1.02,3.12.63,4,.22,2.49,6.92-.4,7.31,1.11,14.74-.46.03-.8-.47-1.27.15-.23.3-.47.73-.42,1.15-.92.43-2.06.2-2.8-.49-1.42,3.21-2.61,6.34-1.88,9.42.44.16.17,1.07-.28,1.06l-10.94-.17c1.32-2.56,3.28-1.16,5.44-1.24.14-2.11,1.32-5.95-.05-7.87-.73-1.02-4.44-1.13-4.94.03-1.11,2.79-.54,6.41-.67,9.17-2.39-.31-4.56.79-6.83.43l-1.45-.23c-.39-.06-.8-.92-.3-1.01l4.44-.79c-.83-2.47-.69-5.43-1.96-7.33-.74-.91-4.03-.88-4.62.16-.93,2.35.62,5.52.7,8.41.04,1.65-3.09,1.16-3.93.94-.49.66-.82,1.11-.98.48-.09-.34-.1-.61.06-.93,1.5-.39-2.11-7.02-2.84-7.93-.91-1.13-4.32-.66-4.36,1-.07,3,2,5.21,2.81,7.58-.01.72-.42,1.54-1.53,1.34-.6-.1-.9-.45-1.55-.85-.44-1.35-3.06-7.17-4.7-7.43-1.12-.17-1.94.11-2.78.7.43-1.81-.66-3.49-.52-5.41.66-9.15-.52-9.01.07-17.02.25-.8,1.15-2.01,1.62-2.5,1.96-.46,3.89-1.23,6.14-1.21l.31,7.35c.41.82,3.29.32,3.47-.57.45-2.13-.01-4.83.32-7.14,3.89-1.08,7.81-1.29,11.63-1.42Z"/>
          <path class="st98" d="M-435.78-100.88c-1.38.44-3.56-.45-5.28-.57-1.14,1.9.97,8.35-1.85,7.38-.45-.16-1.06-.54-1.03-1.37l.25-6.36c-2.91-.9-5.71-1.1-8.62-1.23.62,2.57-.43,4.87.33,6.97-.88.41-3.35.8-4-.22-1.09-1.69.02-3.85-.6-5.89l-11.49-1.29v-.7c.51.07.85-.07,1.38-.36.34-.18.41-.74.41-1.54l-.04-41.56c0-1.31.22-2.25-.55-3.07,1.96-4.61-.4-10.49.96-15.59l.65,13.48c.32,6.57,20.69,46.3,29.46,51.92Z"/>
          <path class="st29" d="M-468.06-104.16c-2.49-.33-4.93.58-7.4.67-3.81.14-7.73.34-11.63,1.42-.33,2.31.13,5.01-.32,7.14-.19.89-3.07,1.38-3.47.57l-.31-7.35c-2.25-.03-4.18.74-6.14,1.21,2.22-2.27,6.38-6.39,8.74-9.26,2.71-3.3,5.42-6.71,7.48-10.56l1.33-2.49c4.86-9.09,8.46-18.74,12.93-27.89.77.82.54,1.75.55,3.07l.04,41.56c0,.8-.08,1.36-.41,1.54-.53.29-.88.43-1.39.36Z"/>
          <path class="st38" d="M-491.02-68.84c-.33,1.26-1.75,1.92-2.96,2.1-.33-.44-6.92-9.22-4.52-8.83.84-.59,1.66-.88,2.78-.7,1.64.25,4.26,6.08,4.7,7.43Z"/>
          <path class="st148" d="M-479.78-122.8l-1.33,2.49c-1.09-.2-.66-1.64-.67-2.49h1.99Z"/>
          <path class="st21" d="M-483.55-69.98c-1.52-.6-2.86.86-4.39.65-.81-2.37-2.87-4.58-2.81-7.58.04-1.66,3.44-2.13,4.36-1,.73.9,4.33,7.54,2.84,7.93Z"/>
          <path class="st150" d="M-452.55-80.03c2.23,10.3,1.07,1.5-.84,9.08-1.35.18-2.63-.06-3.84-.15-.73-3.08.46-6.21,1.88-9.42.74.69,1.88.92,2.8.49Z"/>
          <path class="st111" d="M-468.06-104.16v.7c-.63-.07-1.49.13-2.45.09l-.67,6.78c-.11,1.15-3.01.56-4.13.41-.43-2.59-.17-4.93-.14-7.31,2.47-.09,4.91-1,7.4-.67Z"/>
        </g>
        <g>
          <path class="st60" d="M-330.83-10.23c-9.74-2.59-19.65-5.32-29.73-5.74-.18,0-.39-.17-.56-.14l1.02-35.83c.07-2.28.49-4.3.02-6.24-.25-.45-.07-1.14.69-1.27,7.33,18.86,16.59,35.28,31.29,48.76-1.25.67-2.09.63-2.74.46Z"/>
          <path class="st146" d="M-361.12-16.11l-22.42,4.2c-1.44.27-2.63,1.02-3.87.66-.38.29-.76-.32-.88-.6-.07-.17.1-.68.4-.98,9.3-9.56,16.48-20.43,22.11-32.44,2.06-4.4,3.46-8.9,5.69-12.9.47,1.94.05,3.96-.02,6.24l-1.02,35.83Z"/>
          <g>
            <path class="st53" d="M-330.83-10.23c-1.4,5.36,1.05,18.96-1.86,23.61l-.36,84.28c-.01,2.72-.59,5.13.52,7.6.82,1.84,1.2,4.06,3.54,4.97-1,.43-3.17-.25-3.66,1.25-.65,1.97-.25,4.1-.5,5.97,3.29,2.33,13.79,4.5,14.24,6.43-4.67-.11-9.31-2.06-14.29-2.94-6.88-1.22-12.97-3.85-19.32-5.45-.15-.86-.92-1.49-.33-2.16l1.72-1.97c-2.36-1.39-12.94-2.79-12.53-4.26,1.04-.38,1.65-1.39,2.58-2.32-1.15-.04-1.18-.49-1.71-.83l.31-12.43.08-62.02c0-.81.06-1.14.55-1.24.72-.15.83-1.04.83-1.94V1.49c-.02-6.04-.36-11.82.46-17.46,10.08.42,19.99,3.15,29.73,5.74Z"/>
            <g>
              <path class="st148" d="M-331.39,97.72c-1.11,2.42-1.63,4.76-1.14,7.54-1.11-2.47-.53-4.88-.52-7.6.54-.03,1.12,0,1.66.06Z"/>
              <path class="st43" d="M-363.66,107.11l.87-3.14c.53.33.55.79,1.71.83-.92.93-1.53,1.94-2.58,2.32Z"/>
              <path class="st62" d="M-345.36,50.35c2.25-.12,2.04,7.92,1.27,8.3-.49.24-2.07.21-2.42-.5-.64-1.31-1.16-7.67,1.15-7.8Z"/>
              <path class="st96" d="M-347.53,10.25c-.15.62-1.64.2-2.43-.26-.11-2.09.09-3.8.3-5.63.77-.66,1.65-.65,2.46,0,0,1.88.2,3.75-.33,5.88Z"/>
              <path class="st54" d="M-343.03,92.48l-.07,2.37c-.02.57-2.08.98-2.33.23-.63-1.83-.69-4.98.48-6.59,1.71-.03,1.96,2.35,1.92,3.99Z"/>
              <path class="st32" d="M-335.89,7.71c-.97.76-1.45-.2-1.82.07-.82.58-.92,1.41-1.31,2.46-.8-.6-.43-1.83.05-2.49.56-.78,2.14-1.2,3.08-.04Z"/>
            </g>
          </g>
          <g>
            <path class="st148" d="M-361.12-16.11c.17-.03.38.13.56.14-.82,5.63-.48,11.42-.48,17.46v24.84c.01.9-.1,1.79-.82,1.94-.51-.66-1.3-1.06-2.43-1.2l-6.1-.77-.31,7.28c-1.43.07-3.53.08-4.38-.8-.72-2.21.05-4.59-.34-7.07-2.99-1.03-5.74-1.34-8.82-1.87l-.35,7.77c-1.8-.12-3.44-.27-5.09-.92l.1-7.5c-.79-.1-1.52.3-1.43-.52.26-.61,1.32.13,1.71-.04,3.56-1.56,3.9-4.82,3.97-8.1.17-8.02-.45-15.73-2.55-23.56-.2-.74.4-1.75.47-2.22,1.23.36,2.43-.39,3.87-.66l22.42-4.2Z"/>
            <path class="st61" d="M-373.02,4.98c-.11,1.68.64,4.72-1.18,4.57-1.57-.13-.96-5.37-.45-5.71.58-.38,1.72-.32,1.63,1.14Z"/>
          </g>
        </g>
        <g>
          <g>
            <path class="st116" d="M-594.39-25.26c.97,13.85.64,24.77,4.57,39.01.58.3,1.09.07,1.39.38.1,1.6-1.56.09-2.14,1.03.1-.5-.36-1-.93-.96-7.56.49-14.9,1.58-22.58,2.68-1.62.23-3.14.07-4.42-.24,8.99-13.3,17.76-26.46,24.12-41.9Z"/>
            <path class="st6" d="M-590.34-18.96c4.51,13.03,12.41,24.81,21.03,35.85-.55.84-1.43.7-1.99.78l-17.13-3.54c-.3-.31-.81-.08-1.39-.38-3.93-14.23-3.6-25.16-4.57-39.01.31-.69-1.26-1.4.61-2.28.2,3.47,2.52,5.91,3.44,8.58Z"/>
            <path class="st19" d="M-571.31,17.67c-.84,1.87-.2,3.93-.47,6.4-4.43,1.53-.84,7.17-3.29,7.91-.7.21-2.66.95-2.85-.16l-.93-5.42c-.18-1.06-4.41-.46-4.58.71l-.22,81.26c-1.75.14-3.03,1.39-4.9,2.12-.08-.84.43-1.29.69-1.55.73-.73.32-1.16-.12-1.79-.4-1.28-1.38.14-1.81-.18-.88-.66-.98-1.84-.98-3.04l.19-88.78c.58-.94,2.24.57,2.14-1.03l17.13,3.54Z"/>
            <g>
              <path class="st148" d="M-590.57,15.16l-.19,88.78c0,1.2.1,2.38.98,3.04.43.32,1.41-1.1,1.81.18-1.24-.05-1.19,1.31-2.1,2.4-.96.71-.37-1.21-.74-1.39-1.34-.63-1.42,1.35-1.96,2.59l-3.09-2.5c-1.41.92.35,4.51-1.35,3.07.49-.42-.09-1.16-.41-1.69-.17-.29-.57-.98-1.14-.17.83.73.56,2.35,1.54,1.86-.96.76.63,1.58.36,3.12-1.21-1.43-1.89-3.88-4.62-4.11.91,1.04,3.17,4.07,1.51,5.09-1.36.83-3.93-.65-5.28.99-.79-1.22-.06-2.07-1-3.2-1,1.21-1.16,2.52-2.45,3.47-.02-1.64.91-2.46.65-3.77-1.73.68-1.51,2.49-2.73,3.56-.02-.88-.02-1.85-.48-2.47-.3-.41-.64-1.45-1.5-.91.02-6.74-2.12-4.07-1.34-10.34.19-1.52-.09-2.44-.83-3.92-.51-1.01.15-3.08.13-4.67l-.35-27.07c-.08-5.9-.42-11.68-.32-17.78.05-3,.19-5.76-.17-8.84-.58-5.05,1.14-10.36-.14-15.34-.97-3.76-3.5-3.05-2.74-8.5,1.28.31,2.8.47,4.42.24,7.69-1.1,15.03-2.18,22.58-2.68.57-.04,1.03.46.93.96Z"/>
              <path class="st28" d="M-599.93,66.28c-1.33.61-2.97.83-3.8.27-.46-1.9-.93-8.32,2.36-7.73,2.31.42,1.41,5,1.44,7.45Z"/>
              <path class="st81" d="M-598.5,30.35c-1.18.82-2.1.71-3.28.32-.07-1.75-.86-9.16,1.69-8.73s1.39,5.49,1.59,8.41Z"/>
              <path class="st117" d="M-607.08,31.05c-1.27.77-2.25.88-3.28.32.37-2.17-.92-8.53,1.56-8.41,2.62.13,1.37,5.2,1.72,8.09Z"/>
              <path class="st47" d="M-597.21,111.32c-.98.49-.71-1.13-1.54-1.86.56-.82.96-.13,1.14.17.32.53.9,1.27.41,1.69Z"/>
            </g>
          </g>
          <g>
            <path class="st56" d="M-493.46-16V12.89s-9.59,1.58-9.59,1.58c-1.03,2.34-.22,4.93-.72,7.52-1.55.67-3.38.45-5.39.56-.41-2.04.61-5.27-1.32-6.75-2.87-.92-6.68.56-9.78,1.09l-.44,7.13c-.59.8-3.45,1.45-4.05.66-1.01-1.95-.2-4.48-1.01-6.74-2.62.1-6.19-.19-8.4,1.35-1.67,1.16-.35,4.62-1.06,6.44-.41,1.05-3.86,1.77-4.17.69-.51-1.78.62-5.15-1.56-6.02-2.72-1.09-5.16,1.04-8.89.78,3.85-5,6.44-10.42,9.56-15.35,3.36-5.3,6.53-10.38,9.88-16.53,3.95.35,7.51-1.76,10.83-1.99,8.38-.58,16.64-2.53,25.42-3.67.46-.06.7.14.69.36Z"/>
            <path class="st34" d="M-519.12-24.97c-6.98-1.65-14.08-2.92-21.2-4.01-1.52-14.37-.47-29.89-1.3-44.15-.43-.48-.02-1.12.54-1.84,6.09,17.53,14.7,33.97,26.32,49.01-1.29.85-3.05,1.3-4.36.99Z"/>
            <path class="st35" d="M-540.32-28.98c-.21-.03-.33.14-.5.17-6.25.9-12.69,1.4-19.03,2.82-2.06.46-3.91,1.03-5.91.49-.48.19-.7-.45-.92-1.29,11.71-13.97,18.45-30.17,25.06-46.34.83,14.26-.22,29.78,1.3,44.15Z"/>
            <g>
              <path class="st148" d="M-469.94,93.43c-7.6-.11-15.34-.45-23.48.44l-.41-42.09-.44,39.16c-.01.96.04,1.67-.38,2.28-.36.52-.96.7-2.07.78-29.72,2.1-58.36,8.22-86.26,17.47.28-.69-.65-.89-1.17-1.4-.03-.37.55-.55.66-.74.11-.21-.14-.72-.14-.95l.22-81.26c.17-1.17,4.4-1.77,4.58-.71l.93,5.42c.19,1.11,2.15.37,2.85.16,2.44-.74-1.15-6.38,3.29-7.91.27-2.46-.37-4.53.47-6.4.57-.08,1.44.06,1.99-.78-8.62-11.04-16.52-22.83-21.03-35.85.56-.04,1.24-.04,1.98-.42-.55-1.71-.37-2.76.56-3.53,2.97-2.46,5.12-.14,9.64-.15,8.58-.03,5.62,1.95,12.41-2.45,2.01.54,3.85-.03,5.91-.49,6.33-1.42,12.77-1.92,19.03-2.82V4.56c0,.66.17,1.17.54,1.27-3.13,4.92-5.71,10.34-9.56,15.35,3.73.26,6.17-1.87,8.89-.78,2.17.87,1.05,4.24,1.56,6.02.31,1.08,3.76.35,4.17-.69.71-1.82-.61-5.28,1.06-6.44,2.22-1.53,5.79-1.25,8.4-1.35.81,2.26,0,4.78,1.01,6.74.6.79,3.45.14,4.05-.66l.44-7.13c3.1-.53,6.9-2.01,9.78-1.09,1.92,1.48.9,4.71,1.32,6.75,2.01-.11,3.84.11,5.39-.56.49-2.6-.31-5.19.72-7.52l9.6-1.58V-16c.18-.02,1.39-.52,1.26-1.07-1.16-4.99-1.27-9.82-1.1-15.01.3-9.17-.07-18.08-.13-27.3l-.04-6.13c10.92-3.98,28.63-4.73,41.72-2.73V93.15c-6.18-.52-12.32.37-18.19.28Z"/>
              <g>
                <g>
                  <path class="st102" d="M-466.84,43.65c-2.53.48-4.82.3-7.96.41-.15-3.66-1.87-15.43,3.79-15.54,2.5-.05,4.3,2.89,4.27,5.2l-.1,9.93Z"/>
                  <path class="st109" d="M-468.33-20.66c-2.2.47-4.09.4-6.35.13l.06-8.44c.02-2.17.94-4.08,2.93-5.11,2.07.43,3.3,2.37,3.31,4.49l.05,8.94Z"/>
                  <path class="st100" d="M-472.81,70.11c.21-.44.58.25.76.39.55.45.26,1.14-.08,1.21-.85.17-1.28-.36-.68-1.6Z"/>
                </g>
                <g>
                  <path class="st107" d="M-560.81,63.32l-7.32.72c.22-5.03-1.61-12.49,3.47-13.96,5.57-1.61,3.65,9.46,3.85,13.23Z"/>
                  <path class="st67" d="M-533.01,59.73c-2.84.55-4.69.68-7.43.92.41-5.26-1.98-13.2,3.8-14.32,4.72-.91,3.69,9.33,3.63,13.41Z"/>
                  <path class="st139" d="M-509.1,57.17c-2.55.39-4.18.66-6.66.66.21-3.83-1.51-13.98,3.3-14.19s3.21,9.63,3.36,13.52Z"/>
                  <path class="st36" d="M-552-20.15c2.95.46,1.84,7.73,1.13,8.06-.65.31-2.47.71-2.72-.11-.55-1.76-.53-8.28,1.59-7.95Z"/>
                  <path class="st84" d="M-565.09,23.74c3.94-.74,3.12,7.12,2.51,7.41-.76.37-2.35.61-2.5-.41-.36-2.35.12-4.61-.01-7Z"/>
                  <circle class="st76" cx="-551.42" cy="-.47" r=".61"/>
                </g>
              </g>
            </g>
            <g>
              <path class="st39" d="M-519.12-24.97l-.44,12.27c-3.32.23-6.88,2.34-10.83,1.99-3.35,6.15-6.52,11.23-9.88,16.53-.37-.1-.55-.61-.55-1.27V-28.81c.17-.02.3-.2.51-.17,7.11,1.09,14.22,2.36,21.2,4.01Z"/>
              <path class="st30" d="M-531.46-20.46c2.76.53,1.3,10.3-.6,7.95-1.75-2.16-1.21-5.72.6-7.95Z"/>
            </g>
          </g>
        </g>
      </g>
      <g>
        <path class="st80" d="M-315.97,91.46c-1.72,2.49-2.11,5.25-1.15,8.53-5.93-.02-9.96,4.82-10.49,10.22-.48-.1-.92-.17-1.37.02-2.34-.91-2.72-3.14-3.54-4.97-.49-2.78.03-5.12,1.14-7.54,2.61-5.71,9.5-8.47,15.42-6.26Z"/>
        <g>
          <path class="st31" d="M-268.82,100.42c1.01,1.32.41,2.76.42,4.22-.93-.17-1.14-.84-1.78-.06-.28.34-2.04,13.29-6.44,15.66-3.46.98-6.93.7-10.14-1.76-1.71,4.56-4.05,8.09-5.9,12.27-.68,1.55.08,3.6-.16,4.94-.87.88-1.69.49-2.71-.07-.62-.34-1.41-.89-1.65-1.66.19-11.59,1.49-8.52-6.18-15.5-2.3,4.26-6.47,6.05-10.62,5.75-5.48-1.9-14.32-7-13.64-13.98.53-5.4,4.56-10.24,10.49-10.22-.96-3.29-.56-6.04,1.15-8.53l2.77-.98c-2.37-5.66-1.37-11.69,2.62-16.28,3.64-4.18,9.32-6.29,15.27-5.11,7.37,1.46,12.97,7.75,12.09,15.26,2.82.43,4.84,2.08,5.73,3.91,1.29,2.65.85,5.08-.67,7.82,6.34.38,7.1,4.44,9.34,4.33Z"/>
          <path class="st133" d="M-297.17,122.04l-1.24-.62c.03-.43-.23-.85-.01-1.27.95.06.76-1.17.49-1.75,1.62.58.46,2.46.77,3.64Z"/>
          <path class="st83" d="M-293.48,127.01c.17,0,.5.06.63-.09.15.77-.56.89-.63.09Z"/>
          <path class="st133" d="M-300.1,118.92c-.89.1-.97-.68-.05-.53.14.17.18.35.05.53Z"/>
        </g>
        <g>
          <path class="st87" d="M-258.55,128.91c-.32-.2-1,.28-.74.89.11.25.37.26.64.4,4.35,2.28,6.32,7.67,3.99,11.81-2.62,4.66-7.98,6.13-12.54,2.76-.21,2.97.21,4.99-.22,7.14-1,.33-1.79-.97-2.46-1.24.29-2.23.21-4.54.05-6.79-.02-.95-.79-.71-.63.12-1.17.78-3.54,2.04-4.83,1.84-.23-.03-.7-.28-1.03-.19-.22.06-.44.26-.36.64-.62-.28-1.68-.4-1.88-1.21,1.31-.56,3.59.46,4.85-.58,1.3-2.06,3.3-3.44,3.41-5.99,1.39-.44,1.78-1.68,1.92-3.43.82-10.34,0-20.39-.03-30.42,0-1.46.59-2.9-.42-4.22-.26-.5-.02-1.44.92-1.35,1.5,5.17,4.35,10.16,5.56,15.47.8,3.52,4.66,5.58,1.91,7.71,1.24,1.8,3.47,3.48,3.46,5.86,0,.48-1.24,1.01-1.57.8Z"/>
          <path class="st91" d="M-268.4,104.64c.03,10.04.85,20.08.03,30.42-.14,1.76-.53,3-1.92,3.43-.1,2.55-2.1,3.93-3.41,5.99-1.26,1.03-3.53.02-4.85.58-1.8-.19-2.78-2-4.39-2.62-2.33-5.46,1.09-10.23,5.66-13.52.73.2.79-.69,0-.75-.58-.45-1.53-.3-2.18-1.04l2.85-6.9c4.4-2.37,6.16-15.32,6.44-15.66.64-.78.85-.11,1.78.06Z"/>
          <path class="st124" d="M-269.82,143.86c-.14.24-.46.08-.63.12-.17-.83.61-1.07.63-.12Z"/>
          <path class="st130" d="M-277.28,128.92v-.75c.79.06.73.94,0,.75Z"/>
        </g>
      </g>
    </g>
  </g>
  <g>
    <path class="st24" d="M119,23.52c.4-1.03,1.22,4.35,1.16,3.17l.18,3.5c.03.62.08.71.03,1.37l-.23,3.41c-.03.48-1.11,4.24-1.67,5.27-.35.65-.52,1.51-.82,2.06l-1.45,2.67c-.3.55-.79.93-1.04,1.62-.16.43-.97.83-1.29,1.29l-1.09,1.55c-.67.95-1.8,1.44-2.19,2.61-.3.91-1.37,1.27-1.89,1.96-.59.8.93-.1-2.48,2.94-.2.18.04.89-.44,1.08-.51.21-.79.7-1.15,1-.42.24-.48.8-.24,1.2.06.17.13.39.02.52-13.35,16.2-26.78,32.38-40.24,48.29l-.55-.08c-.72.83-1.27,1.72-1.66,2.77l-.54-.13c-.6.96-.91,1.94-.95,2.93.69.31-.65,1.03-.96.53-.98.13-1.23.37-1.44,1.34-.37.16-.76.6-1.21.66-.51.06-.66-.7-.95-.9-1.23-1.68-1.24-3.7-1.24-5.8,0-2.8.39-5.5,1.14-8.19,1.57-5.62,4.39-9.6,7.77-14.05l.04-19.15c.28-.37.43-.72.46-1.04-.31-.2.16-.71.45-.9.02-.01-.18.41-.22-.08.16-.15.34-.38.56-.45.19-.18.27-.26.37.01l.32.07c0,6.5.07,12.98.21,19.44.76-.28,1.07-.6.93-.95l.25.09c.11-.31.34-.6.69-.87-.41-.28-.19-.9.27-.58l.7-.69c.41-.59.9-1.15,1.45-1.69.17-.46.64-.9.99-1.21.2-.35.37-.74.51-1.18,7.63-9.16,15.34-18.4,23.13-27.72l.57.1,2.44-2.9-.26-.44,19.58-23.55c.71-1.03,1.37-1.35,1.98-.97Z"/>
    <path class="st3" d="M119.04,81.59l.26.43-32.56,39.02-.56-.08c-.18.45-.56.77-.96,1.01.29.92-1.49,3.17-2.24,3.57-.33.18-.56.28-.8-.02l-.57,1.57c-1.05,1.01-2.03,2.09-2.93,3.23l.11.34c-.8.47-1.39,1.24-1.78,2.31.3.43.13.79-.51,1.08l-.7,1.36c.27.48.19,1.11-.47,1.14-.2.6-.44,1.17-.71,1.7l.2.82c-1.38,4.29-1.77,8.73-.94,13.17-.16.86-.65.74-1.17.18-.91-.95-1.79-1.93-2.63-2.92-.57-.4-.59-.88-.96-1.4-2.14-3.72-3.21-7.64-3.81-11.78l-.03-4.78c.2-.48.28-.96.24-1.44.21-.7.33-1.45.48-2.16l.26-.07c.89-3.53,2.41-6.79,4.58-9.77.06-.08,6.39-7.98,5.97-7.2,1.46-1.42,2.8-2.99,4.03-4.71.15-.22.37-.62.54-.82l-.22-.48c13.31-15.79,26.64-31.67,40-47.64.27-.17.7-.13.93.08.63.58.1,4.14-.28,5.09-.12,3.07-.44,6.16-.97,9.25l.07,1.77c-.37,2-.63,4.03-.76,6.08-.56.64-.93,1.34-1.11,2.08Z"/>
    <path class="st90" d="M138.48,66.48c-.24.38-.13.8,0,1.2-.22.52-.14.92,0,1.44l-.24,1.44c-.19.18-.37.55-.26.92.27.98-.2,1.61-.43,2.44-.16.58.22,1.34-.74,1.49.48.61.03,1-.09,1.51-.41,1.64-1.21,3.37-2.33,4.68-.27.32-1.58,2.63-1.97,2.82-.58.27-.44,1-.79,1.39l-2.11,2.38c-.87.98-1.72,1.99-2.66,2.84.1,1.12-1.71,2.11-2.06,2.6-.53.75-.75,1.78-1.68,2.14-.19.28-.42.59-.72.72-.32.32-.5.78-.24,1.2l.26.44c-10.86,13-21.71,25.99-32.57,38.99l-.56-.08c-.26.43-.58.84-.97,1.21-.4.61-.86,1.26-1.46,1.69.2.04.19.1,0,.18-.48.51-.94,1.01-1.38,1.49l-1.67,2.38h-.29c-.11.26-.26.43-.44.5-.48.52-.85,1.09-1.12,1.72l-.34-.03c-.83,1.39-1.22,2.98-1.18,4.77l-.47.23-.06.4c-.81.58-1.69,1.04-2.65,1.37-.68.56-2.91,1.27-1.82-.03-.05-.54.63-1.27,1.17-1.26.67-1.2,1.05-2.49,1.18-3.84.29-4.53.79-9.03,1.51-13.49-.15-1.53-.15-2.85.43-4.32-.22.37-.57.48-1.05.32-.05-.74,2.39-3.17,2.61-3.61.62-1.24.48-2.68,1.18-3.88.49.91-.4,1.56,0,2.57,1.09-1.05,1.99-2.24,2.74-3.43.4-.25.78-.56.96-1.01l15.4-18.41,17.45-20.96.12-.73c5.6-6.83,11.22-13.61,16.86-20.33l.53-.04c1.73,1.9.63,1.73,1.02,2.35,1.11,1.79-.26,2.81.92,3.65Z"/>
    <path class="st77" d="M136.55,60.48c.02.51-3.78,4.7-4.5,5.56l-13.01,15.55c-.07-.27-.39-.92-.06-1.15.89-.61.68-1.32.86-2.17.62-2.9-.56-.08.53-4.49.21-.84-.12-1.55,0-2.28.48-2.66.48-4.07.81-6.62.12-.9.31-1.49.14-2.5.01.08.9-3.41.44-4.24.11-.16.14-.27.14-.36s-.45-.27-.52-.16c-1.08,1.54-2.27,2.67-3.5,4.14l-31.81,38.17c-.41.49-.64.8-1.02,1.23l-3.69,4.2c-.96-.21-1.64.17-2.48.64-1.99,1.12-5.2,2.66-7.13,3.21-.84.59-1.88,1.14-2.88,1.44.12.1.04.26-.24.48-.72.35-1.36.99-2.34,1.03-.79.68-1.72,1.29-2.73,1.5-1.44-.33-.62-2.91-.19-3.96-.13-.17-.04-.41.25-.72l6.49-7.88,2.75-3.25,9.71-11.68,3.06-3.68,17.46-20.86c.4-.48.78-1.21,1.31-1.38s1.1.13,1.72-.2c2.13-1.13,4.26-2.12,6.46-3.17l10.04-4.78c1.89-.9,3.67-1.75,5.52-2.67.37-.18.64-.34,1.08-.25.05,0,3.12,3.07,3.36,3.46.29.46.59.87.88,1.31l.86,1.32c.83,1.27,1.33,2.75,2.18,4.08.21.33.03.85.04,1.14Z"/>
    <path class="st86" d="M140.88,133.2c-.3.32-.46.56-.48.72-.1.41-.51.94-.96,1.18-.53.57-1.01,1.14-1.44,1.7-.04.28-.32.52-.48.72-.32.54-.86,1.03-1.41,1.3-.19.58-.51,1.11-.99,1.59-.57.85-1.21,1.49-1.91,1.9-.26,1.06-1.05,1.81-1.91,2.41.15.38-.19.59-.46.24-.16,1.17-.92,2.03-1.89,2.58-.19.4-.37.82-.54,1.26-.33.45-.96.97-1.2,1.44-.59.37-.99.85-1.2,1.44-.79,1.24-1.73,2.3-2.75,3.49-3.1,3.61-5.89,7.36-9.09,10.71-.77.69-1.4,1.48-1.88,2.36-.65.54-1.91,3.23-2.84,3.12l-2.18,2.8c-.12.06-.18.3-.31.35-.73.73-1.36,1.53-1.89,2.38-.19.11-.26.42-.5.51-.58.72-1.17,1.34-1.77,1.87.07.26-.26.54-.49.69,0,.1-.09.24-.14.33l-1.45,1.68-.31.02c-.04.29-.2.56-.49.84-.22.63-1.59,2.73-2.28,2.91-.6.19-.58-.37-.52-.89,1.34-1.87,1.8-3.62,1.51-5.93.46-1.75.66-3.57.61-5.47.23-1.94.52-3.87.89-5.79-.1-1.36-.14-2.52.36-3.82-.1-.62,0-1.08.29-1.39-.14-.77.23-1.36,1-1.33l-.19-.27c11.74-14.17,23.53-28.38,35.37-42.62l.56.08-.2-.26c3.44-4.41,7.01-8.75,10.68-13.01l.55.09,2.67-3.14c-.08-.25-.15-.52-.05-.77.21-.5,2.09-2.53,2.61-2.95l.75-.11c.74.08.65.75.8,1.44.17.81.71,1.48.39,2.42-.18.53.36.93.39,1.36.41,6.12-.13,2.81-.44,7.29-.05.67-.62,1.49-.46,2.29.03.16-.6.29-.57.45.02.13.19.43.14.6-.36,1.14-2.41,5.26-3.24,6.33-.48.62-2.1,3.18-2.68,3.58-.73.51-1.17,1.24-1.62,1.97-.54.88-1.44,1.42-2.11,2.16-.17.19-.1.6-.34.91-.6.77-1.79,1.24-2.06,2.06-.33,1.02-1.09,1.62-1.85,2.18Z"/>
    <path class="st118" d="M154.53,98.16c-1.12,1.24-2.39,2.43-3.31,3.83l-2.67,3.14-11.04,13.18c-.65.68-1.25-.47-.61-1.04.69-6.31,1.36-12.62,2.01-18.93.35-.63.37-1.37.06-2.23l-35,41.92-.54.17c.28.37-.07.82-.5.71-.42.4-.81.82-1.17,1.25-.6.88-1.4,1.69-2.16,2.4-.31.19-.71.27-1.2.24-.6-.05-1.13.33-1.76.64l-2.08,1.03c-1.01.5-1.97.98-2.89,1.44-.38.05-.74.13-.96.48-.44.03-.76.19-.96.48-.23.06-.42.37-.72.24-.48.27-.71-.22-.8-.7l.77-6.51c-.15-.94-.06-1.75.27-2.41-.25.05-.25-.11,0-.48l32.87-39.35c.57.02,1.13.1,1.7-.21,1.49-.81,3-1.45,4.57-2.19l10.05-4.78c2.53-1.2,4.92-2.42,7.43-3.61.37-.18.62-.37,1.08-.26.05.01,3.15,3.11,3.37,3.45.39.59.48,1.16,1.2,1.55.63.35.57,1.53,1.06,1.97.81.74,1.08,1.54,1.37,2.59.17.64.64,1.32.55,1.98Z"/>
    <path class="st75" d="M119,23.52c-.59.23-1.11.67-1.61,1.28l-19.68,23.67-2.44,2.9c-.28.17-.41.7-.69.96-1.36,1.3-2.33,2.74-3.53,4.13-2.56,2.95-5.05,5.81-7.42,8.91-.56.72-1.08,1.24-1.65,1.92l-10.91,12.87c-.08.11-.17.11-.27,0-.06-.44.27-1.07.48-1.44l.24-.56v-18.01s.26-.63.26-.63c-.7-.51.39-1.31.9-1.65-.37.06-.36-.18.03-.74l2.54-2.6h.36c.18-.77.68-1.65,1.46-1.94.29-.51.66-1.05,1.1-1.61l.3-.33c.55-.84,1.36-1.6,2.16-2.16.24-.27.4-.59.48-.96.42-.4.66-.96,1.2-1.2.14-.32.41-.56.72-.72.45-1.8,1.76-1.71,2.88-3.87.49-.95,1.73-1.38,2.13-2.32.58-1.37,1.89-2.03,2.76-3.06,0,0,.37-1.49,2.38-2.71.35-1.72,2.28-2.51,2.98-3.9.62-1.23,1.84-1.89,2.67-2.92.39-.49.37-1,1.03-1.42,2.14-1.34,1.92-2.74,3.13-3.51.86-.55,1.19-1.4,1.66-2.14s1.53-1.17,1.89-1.98c.3-.67.58-1.22,1.24-1.63.88-.55,1.16-1.46,1.67-2.14.65-.84,1.57-1.32,2.09-2.45.94,1.27,1.67,2.15,2.85,2.94-.14,1.04.91,1.3,1.3,1.99.34.61,2.88,4.69,3.01,5.43l.27,1.6Z"/>
    <path class="st40" d="M55.92,116.16c-1.65-1.13-2.67-2.81-3.81-4.32-2.41-3.88-3.93-7.97-4.59-12.48-.32-1.91-.26-3.7.07-5.61.62-3.05,1.33-6.13,2.8-8.96.5-1.69,1.69-3.17,2.9-4.63l8.14-9.82c.36-.43.56-.87,1.04-1.01l1.29-1.44.33.04c.29-.1.52.11.39.28l-.36.47-.04,19.6c-.79,1.66-2.18,2.76-3.18,4.28-1.08,1.64-2.17,3.32-2.96,5.13-2.32,5.31-3.32,10.87-2.48,16.52.1.66.78,1.24.46,1.94Z"/>
    <path class="st59" d="M92.15,151.88c.09.09.16.18.18.28.04.15-1.7,2.14-2.14,2.14.46.59-.23,1.67-.94,1.42.01.33-.24.64-.75.94,0,.55-.26,1.51-.94,1.41.07.56-.17,1.16-.72,1.79l-.62,1.47c.81.82.87,1.88.17,3.18.15,1.55,0,2.86-.47,4.36.12,1.58-.02,3.01-.49,4.54v2.64c-.09.9-.41,1.24-.96,1.02.07.59.07,1.16-.01,1.74.61-.17.66.02.24.48.38.04.32.66.2.98.63-.14.67,0,.26.47.23.06.38.37.44.94.21.05.22.13.03.24.21.19.37.45.47.78v.14c.26.32.45.74.55,1.26.49-.23.48.05.41.56.51.12.64.39.5.89.38.35.92.95.97,1.46,1.06.79,1.89,1.73,2.66,2.8.74-.64.88.46.95,1.07.6-.17,1.09-.61,1.46-1.34.72-.8,1.2-1.01,1.44-.65-.7,1.07-1.49,2.06-2.57,3.21-5.01-4.32-8.53-10.33-9.19-16.89,0-.5-.08-.98-.24-1.44v-3.84c.24-.64.32-1.28.24-1.92.67-5.33,3.18-10.23,6.81-14.29.64-.72.94-1.37,1.66-1.84.25-.24.39-.24.4,0Z"/>
    <path class="st59" d="M75.44,152.92l.06.29c.11.5,1.35-.33,1.76-.26l-.02.19c-.81.51-1.67.9-2.67,1.42l-3.24-3.18c-.53-.52-.71-1.53-1.24-1.91.68-.07,2.24,2.66,3.37,3.12-.35-2.64-.75-5.14-.35-7.75.35-2.32.67-4.55,1.52-6.61.28-.54.52-1.11.71-1.7.12-.31.04-.97.47-1.14.28-.68.66-1.29,1.13-1.83l.41.13c.08.82-.03,1.68-.31,2.59.08,1.31-.01,2.42-.47,3.67-.21,3.61-.54,7.18-1,10.72.3.96.26,1.7-.12,2.24Z"/>
    <path class="st154" d="M96.84,186.02c.11-.46.32-.47.5-.04-.28.85-1.47,2.06-2.06,2.66l-.69.03c-.51.66-.92.89-1.24.69-1.17-.01-.84-1.89-.16-2.62l-.09-3.71c.55-.97.71-2.05.49-3.24.44-1.84.63-3.71.56-5.62l.49-1.3c-.33-.9.2-1.85.82-2.52.05-.06-.69,1.45-.97.82-.18-.48.12-1.1.53-1.43-.23-1.27.98-1.96,1.96-2.49.64-.7.97-.83,1.11.24-.72,1.05-.92,2.33-.58,3.84l-.56,2.43c.16,1.46,0,2.66-.5,4.04.27,1.47.12,2.74-.46,3.82.19,1.86.03,3.64-.46,5.33.41-.41.85-.71,1.31-.92Z"/>
    <path class="st136" d="M97.95,165.59c.67.81-.21,1.41-.97,1.64-.72.77-1.33,1.62-1.96,2.49l-.36.41c-.76,2.41-2.15.41-.9-1.07.39-4.85.9-9.69,1.53-14.52-.1-1.41.07-2.82.5-4.23v-1.26c-.53-.09-.71-.33-.56-.71-.21-.03-.22-.17-.02-.39l1.5-1.95c.74-1.02,1.44-2.13,2.4-2.96-.11-.35.22-.45.48-.23l.35.43c-.55.78-1.12,1.54-1.73,2.28.58.62.45,1.12.03,1.78.04,1.95-.16,3.84-.62,5.67.13,1.35-.03,2.67-.46,3.97l.06,1.9c-.45,2.63-.8,5.26-1.03,7.91.57-1.05,1.15-1.44,1.74-1.16Z"/>
    <path class="st17" d="M95.02,169.72c-.28.4-.41.99-.53,1.43.27.58.06.65-.38.2-.38.77-.8,1.48-1.26,2.14.17.04.16.11-.02.19-.12.22-.32.4-.54.33-.47-.15-.2-2.63-.12-3.22.52-1.71.69-3.55.5-5.5l.43-.82c.08-2.83.38-5.62.89-8.38.02-1.86.21-3.68.57-5.47-.33.61-.69.83-1.08.66.18.71-.54.86-.78.15-.03-.57.3-1.14.98-1.73.55-.37.72-.59.5-.67.15-.11.26-.43.48-.5.23-.3.43-.36.59-.2.09.16.33.18.45.1.08-.05.2-.26.47-.21.54,3.25-.72,3.56-.41,5.61.16,1.06-.33,1.96-.38,2.93l-.18,3.72c-.04.82-.56,1.53-.4,2.47.18,1.09-.35,1.96-.4,2.93l-.16,3.21c-.02.39-.69.59-.55,1.08.07.23-.04.71.52.76.16-.53.3-1.12.82-1.23Z"/>
    <path class="st141" d="M68.2,63.1c.21-.16.57-.17.57-.04.03,6.21,0,12.55-.12,18.77.02.22.14.29.43.25-.04-.59.29-.83,1-.73-.23.7-.82,1.29-1.45,1.69-.3.4-.9,1.11-1.21.71-.06-6.49.02-12.96.22-19.42l-.26-.02c-.13.45-.35.69-.66.72-.4.69-.89,1.18-1.47,1.48h-.37c.8-1.28,1.81-2.48,2.9-3.49.32-.28.46-.26.42.07Z"/>
    <path class="st13" d="M72.69,57.86c-.29.52-.73,1.11-.9,1.65l-.26.75v17.82s-.08.21-.24.63l.19.72c-.38.16-.59.4-.67.72-.24.34-.51.27-.44-.15.06-6.36.12-12.73.17-19.11l-.21-.66v-.24c.62-.59.87-1.55,1.68-1.92.2-.33.45-.57.69-.22Z"/>
    <path class="st18" d="M70.29,60.76l.24.1c-.09,6.49-.13,12.98-.11,19.48l-.29.45c.48.29-.77,1.11-.83.57l.04-18.38.2-.85c-.43.08-.71.41-.83,1l-.52-.02c-.14-.05-.27-.11-.42-.07.55-.51,1.19-1.93,1.82-2.32.49-.32.71-.3.69.04Z"/>
    <path class="st59" d="M52.11,111.84c-2.03-2.69-3.36-5.86-4.21-9.28-.28-1.13-.21-2.17-.38-3.2.81.78.49,1.98.75,3,.79,3.09,1.84,5.9,3.59,8.48.24.36.46.61.25.99Z"/>
    <path class="st4" d="M89.04,147.12c-.06.1-.18.15-.24.24-.41.26-.65.25-.72-.05l-.53-.06c.31-2.81.58-5.62.8-8.42l.24-.35c-.4-.3.27-1.1.69-.97-.07,4.08-.13,4.53-.65,8.86l.41.76Z"/>
    <path class="st113" d="M84.52,143.36c-.27,1.65-.47,3.33-.58,5.03.18.4.43.77.76,1.1-.16.36-.63.34-.93.51-1.04.41-1.29.24-1.43-.8-.18-1.36.47-4.04,1.19-5.22.06-.14,1.69-2.53,1.96-2.37-.02.34-.27,1.52-.45,1.79-.07.1-.33.03-.51-.04Z"/>
    <path class="st155" d="M87.08,147.76c.24-.63.51-.53.76.08-.06.1-.18.15-.24.24-.47.24-.79.23-.95-.02-.04.45-.84.43-1.22.32s.43-6.9.98-7.52c-.17-.32.15-.57.48-.39.34-.03.6.06.54.39l-.64,6.35.3.55Z"/>
    <path class="st126" d="M66,127.92c.79-3.58,2.49-7.01,4.83-9.84.25.45-.11.71-.4,1.1-2.02,2.74-3.76,6.43-4.1,9.75l-.34-1.01Z"/>
    <path class="st70" d="M69.12,148.08c-2.15-3.02-3.78-8.15-3.81-11.78.43.42.68,1.2.58,1.91-.11.82.21,1.35.36,2.04.53,2.51,1.44,4.81,2.73,7.02.16.27.11.59.14.81Z"/>
    <path class="st9" d="M83.76,150c-.75.43-1.52.93-2.36,1.15-.47-.17-.33-.77.07-.99-.21-2.27.32-4.16,1.6-5.67.03-.2.38-.35.44-.51-.94,2.51-.1,2.38-.84,4.94-.17.57.59,1.24,1.08,1.09Z"/>
    <path class="st145" d="M47.59,93.75c.12-.69-.04-1.4.22-2.23.73-2.34,1.07-4.89,2.58-6.73.35.63-1.42,2.75-1.33,4.34-.5.39-.49.93-.46,1.49-.98,1.03.09,2.57-1,3.12Z"/>
    <path class="st33" d="M81.4,151.15c-.06.02-.19,0-.25-.01-.25.36-.41.27-.24-.15-.65-.26-.34-2.03-.21-2.75.15-.8.42-1.41.91-2.06.52-.5.73-1.44,1.46-1.69.11.56-.67.83-.81,1.39-.35,1.46-.15,3.17-.35,4.59-.02.12-.67.23-.62.41.02.08.02.17.1.27Z"/>
    <path class="st145" d="M80.91,150.98c-.02.26-.17.48-.46.65-.11-.02-.23.05-.34.04-.37.11-.41-.06-.15-.49.47-2.38-.36-3.08,1.64-5.01l-.4,1.05-.31,3.77Z"/>
    <path class="st122" d="M63.57,113.64l-.44.09c-.24.25-.56.24-.75-.05-.86.1-.65-1.31-.48-1.95.14-.51.97-2.24,1.48-2.06.22,1.87-.54,2.8.19,3.96Z"/>
    <path class="st71" d="M76.8,110.88c.46-.84,1.14-1.48,1.85-2.23.79-.83,1.2-1.98,2.18-2.47.44.39-3.93,4.94-3.85,5.04-.07-.07-.23-.23-.18-.33Z"/>
    <path class="st122" d="M62.36,114.02c.39-.32.55-.21.28.22-1.43.54-3.4,1.88-4.25,1.85-.55-.53.52-1.09,1.13-1.03.21-.21.93,0,.96-.53-.03-.52.29-.68.96-.49.23-.64.65-.65.92-.03Z"/>
    <path class="st26" d="M92.69,151.44c.46.55.04.86-.54.45h-.4c.11-.08,1.82-2.86,2.42-2.84.14-.04.37-.02.35.14-.73.78-1.46,1.41-1.83,2.26Z"/>
    <path class="st151" d="M75.62,54.52c-.83.99-1.79,1.99-2.9,2.6.96-1.12,1.83-2.32,2.88-3.36.3-.05.3.2.02.76Z"/>
    <path class="st64" d="M80.12,151.67c-.65.9-2,.91-2.88,1.47-.14-.07-.04-.1.02-.19.41-.63,2.11-.9,2.71-1.77.09.15.12.32.15.49Z"/>
    <path class="st49" d="M107.26,174.16c-.5-.16,1.97-2.69,2.18-2.8-.46,1.09-1.11,2.26-2.18,2.8Z"/>
    <path class="st26" d="M114.16,165.88c-.5.91-1.11,1.72-1.88,2.36-.9-.35,2.75-3.26,1.88-2.36Z"/>
    <path class="st132" d="M106.95,174.5c-.52.86-1.03,1.86-1.89,2.38-.63-.08,1.31-2.2,1.89-2.38Z"/>
    <path class="st26" d="M95.24,148.34c-.18.1-.39.14-.59.2.56-.93,1.12-2,2.06-2.54.51.43-1.42,1.76-1.48,2.34Z"/>
    <path class="st33" d="M102.15,180.28c-.4.79-.91,1.57-1.61,2.11-.26-.06-.31-.2-.15-.41.58-.57.96-1.48,1.76-1.7Z"/>
    <path class="st71" d="M64.09,67.94c-.58.44-.9,1.18-1.62,1.39.5-.87,1.11-1.69,1.84-2.37.1,0,.21-.07.43.09-.38.19-.4.69-.66.88Z"/>
    <path class="st33" d="M104.55,177.39c-.45.74-.87,1.56-1.57,2.09-.36.29-.48.15-.2-.23.47-.7.96-1.56,1.77-1.87Z"/>
    <path class="st105" d="M59.52,115.06c-.3.32-.92.59-1.13,1.03-.05.1-.2.27-.31.31l-.43-.78c.51-.52,1.32-1.05,1.87-.56Z"/>
    <path class="st95" d="M133.14,142.83c-.14-.04-.11-.22.07-.52.51-.66,1.17-1.49,1.91-1.9-.4.96-1.1,1.87-1.98,2.42Z"/>
    <path class="st48" d="M130.8,145.92c-.44.64-.89,1.16-1.44,1.68-.31.24-.45.22-.42-.06.34-.58,1-.93,1.46-1.53.24-.32.04-.91.44-1.05.42-.05.41.27-.03.96Z"/>
    <path class="st106" d="M133.14,142.83c.08.43-1.08,1.67-1.37,1.85-.2.28-.34.38-.47.04-.02-.17.08-.51.3-.6.95-.38,1.13-1.19,1.61-1.81.01.17-.1.35-.07.52Z"/>
    <path class="st157" d="M80.64,48.48c-.59.78-1.5,1.44-2.16,2.16-.31-.27,1.91-2.29,2.16-2.4.21.07.21.15,0,.24Z"/>
    <path class="st22" d="M69.6,110.64c-.35.18-.59.18-.72,0,.93-.48,1.86-1.15,2.88-1.44.22.53-1.29.75-2.16,1.44Z"/>
    <path class="st20" d="M136.32,138.96c-.3.71-.54,1.08-1.2,1.45.25-.61.47-1.19.99-1.59.28-.16.35-.14.21.14Z"/>
    <path class="st63" d="M77.08,52.58l-.28-.02c.11-.74.91-1.08,1.38-1.59.05.68-.55,1.21-1.1,1.61Z"/>
    <path class="st157" d="M139.44,135.1c-.09.77-.85,1.25-1.44,1.7-.78-.02,1.22-1.59,1.44-1.7Z"/>
    <path class="st119" d="M77.08,52.58c-.7.52-.95,1.33-1.46,1.94l-.02-.76c.39-.39.64-.98,1.2-1.2l.28.02Z"/>
    <path class="st127" d="M101.28,153.12l.29.07-.75,7.76c.15.57.14,1.07-.05,1.49.37.85.21,1.66-.11,2.52-.39,1,.17,2.2-.15,3.24-.28.89-.6,1.69-.42,2.68s-.34,1.82-.38,2.73l-.19,3.9c-.03.61-.48,1.08-.42,1.77.55,6.32-3.12,4.35-1.46,6.45-.11.03-.18.21-.28.26-.17.02-.33.04-.5.04-.47-.14-.57-.53-.32-1.18.49-1.19.59-2.51.29-3.94.95-1.8.85-3,.63-4.95.49-1.24.64-2.5.45-3.78.44-1.81.65-3.65.61-5.53.42-.64.5-1.28.24-1.92-.33-.16-.25-.34.14-.3l.45-1.3c.86-7.31,1.62-14.61,2.3-21.9.21-.65.49-.92.85-.81-.17,4.21-.57,8.45-1.2,12.72Z"/>
    <path class="st115" d="M136.32,138.96c-.09,0-.28.02-.21-.14.51-.39.82-1.02,1.41-1.3.16.73-1,.97-1.2,1.44Z"/>
    <path class="st129" d="M131.77,144.68c-.11.54-.68.83-.97,1.24l.03-.96c.16-.06.3-.18.46-.24.14-.06.33,0,.47-.04Z"/>
    <path class="st64" d="M126,151.68c-.14-.77.54-1.19,1.2-1.44-.3.59-.85.89-1.2,1.44Z"/>
    <path class="st147" d="M129.36,147.6c-.29.27-.71.85-.96,1.2-.11-.51.09-1,.54-1.26l.42.06Z"/>
    <path class="st101" d="M100.54,182.38c-.19.15-.25.6-.63.43-.18-.13-.27-.31-.14-.4.25-.18.46-.27.63-.44.04.14.08.28.15.41Z"/>
    <path class="st5" d="M83.04,169.92c0-.69.16-1.26.24-1.92.43.49.04,1.4-.24,1.92Z"/>
    <path class="st16" d="M65.28,131.52c0-.55.08-.93.24-1.44.41.35.02,1.07-.24,1.44Z"/>
    <path class="st64" d="M80.91,150.98c.09.04.15.12.24.15-.08.33-.36.54-.7.49-.11-.35.22-.53.46-.65Z"/>
    <path class="st89" d="M122.4,96.48c.16.07.16.15,0,.24-.17.29-.27.62-.24.96-.4-.04-.22-.5-.25-.85-.02-.25.26-.33.49-.35Z"/>
    <path class="st37" d="M95.28,188.64l-.24.24c-.59-.54-2.44,2.9-2.9,1.99-.31-.54.64-1.59,1.21-1.51.88-.15.86-1.14,1.51-.95.14.04.29.13.43.24Z"/>
    <path class="st157" d="M123.12,95.76c0,.45-.32.79-.72.96v-.24c.06-.45.36-.58.72-.72Z"/>
    <path class="st99" d="M72.69,57.86c-.25.02-.47.12-.69.22,0-.46.45-.65.72-.96l-.03.74Z"/>
    <path class="st121" d="M99.6,142.56c.1.08.1.16,0,.25-.11.11-.36.12-.48.23-.11-.29-.46-.25-.72-.24.31,0,.79-.51,1.2-.24Z"/>
    <path class="st78" d="M80.64,48.48v-.24c.11-.24.27-.52.48-.72.03.18,0,.35.01.6s-.26.33-.49.36Z"/>
    <path class="st82" d="M83.28,175.2c-.05-.46-.24-.89-.24-1.44.46.3.18.96.24,1.44Z"/>
    <path class="st129" d="M63.12,113.74c-.07.24-.25.42-.48.5.02-.14-.15-.23-.28-.22-.46-.02-.45-.2,0-.33.25-.11.52-.1.75.05Z"/>
    <path class="st51" d="M102.98,179.48c-.1.31-.37.53-.7.46,0-.33.18-.59.49-.69l.2.23Z"/>
    <path class="st55" d="M138.24,70.56c.06-.48-.22-1.14.24-1.44.12.44.08,1.13-.24,1.44Z"/>
    <path class="st103" d="M70.32,60.24c.25.15.29.45-.03.52l-.69-.04c.22-.13.52-.53.72-.72v.24Z"/>
    <path class="st2" d="M104.64,59.04c-.22.36-.26.79-.24,1.2-.41-.04-.2-.51-.26-.85s.28-.28.5-.35Z"/>
    <path class="st9" d="M85.68,149.04c-.31.15-.6.47-.99.45-.99-.61.4-.92.99-.45Z"/>
    <path class="st70" d="M69.6,110.64c-.3.23-.62.32-.96.48,0-.2.06-.39.24-.48h.72Z"/>
    <path class="st110" d="M86.64,148.56c-.3.23-.63.32-.96.48-.67-.14-.56-.2.02-.49-.09-.35.79-.24.94,0Z"/>
    <path class="st65" d="M83.04,45.6c-.08.32-.44.6-.72.72,0-.22.04-.47.23-.61.14-.1.32-.11.49-.11Z"/>
    <path class="st9" d="M87.6,148.08c-.22.32-.68.27-.96.48-.7-.07-.59-.24.01-.5l.95.02Z"/>
    <path class="st15" d="M88.8,147.36c-.22.31-.58.47-.96.48-.43-.43-.36-.57.24-.53l.72.05Z"/>
    <path class="st149" d="M138.48,67.68c-.39-.21-.39-.99,0-1.2-.11.36.14.86,0,1.2Z"/>
    <path class="st10" d="M90.72,146.4c-.32.16-.6.39-.96.48-.05-.21-.01-.4.17-.44.28-.07.53-.06.79-.04Z"/>
    <path class="st55" d="M91.68,145.92l-.96.48c.02-.51.54-.57.96-.48Z"/>
    <path class="st22" d="M140.4,133.92c-.41-.04-.1-.29,0-.38.18-.17.33-.23.48-.34.13.38-.33.53-.48.72Z"/>
    <path class="st154" d="M66.46,65.96l-.21.41c-.05,6.14-.02,12.29.09,18.46l.64.36c.36-.4-.96,1.88-1.45,1.31-.11-.13-.24-.3-.24-.6l-.03-19.38c.15-.65,1-1.12,1.47-1.48.72-.7.4.92-.27.92Z"/>
    <path class="st14" d="M68.63,83.05c.04.62-.77.78-.97,1.26-.08.16-.16.15-.23-.02-.39.4-.6.32-.6-.22v-18.08c.09-.61.27-1.16.56-1.66.12-.01.18-.32.3-.39.29-.17.24.14.25.27s-.23.3-.23.45v19.03c.35-.32.64-.45.93-.63Z"/>
    <path class="st45" d="M66.46,65.96l.32.07c.06,6.05.09,12.1.08,18.17l.57.09.23.02c-.17.41-.41.56-.69.87l-.94.5-.04-18.97c0-.46.08-.76.47-.75Z"/>
    <path class="st71" d="M63.37,109.68c-.94.05-1.34,3.81-1,4.01v.33c-.32.03-.62.05-.93.03-.46.38-.87.19-.89-.44l.89-2.01c.42-.45.96-1,1.21-1.62.24-.58.72-.7.98-1.03-.06.25-.13.5-.25.72Z"/>
    <path class="st51" d="M61.44,114.05c.05.58-.78.3-.96.49-1.39-.09.48-2.43.95-2.93-.03.71-.92,2.56,0,2.45Z"/>
    <path class="st7" d="M95.26,51.37c-.3-.04,2.3-3.09,2.44-2.9.25.09-2.26,3.04-2.44,2.9Z"/>
    <path class="st122" d="M70.14,80.79c.09-.55.31-.76.66-.63h.27c-.32.38-.39,1.01-.99,1.21-.37.12-.69.5-1,.73l-.37-.02c.04-6.21.06-12.44.07-18.69-.21-.51.23-1.33.77-1.26l.06,19.2c.46.12.35-.4.53-.54Z"/>
    <path class="st154" d="M76.61,151.66c-.16.55-.63,1.19-1.17,1.26-.3-1.42-.65-3.15-.1-4.62.45-1.2.07-2.38.32-3.57.33-1.55.54-2.93.42-4.58-.06-.83.65-1.71.5-2.61-.21-1.28.17-2.36.55-3.63-.95.24-.62,1.22-1.32,1.5.19-.85.59-1.79,1.21-2.44.14-.51,1.46-2.54,1.82-2.56,1-.04.17,2.44-.03,2.99.08,2.04-.11,4.02-.58,5.96.09,1.11.06,2.07-.37,3.15.07,1.82-.14,3.56-.61,5.23.29,1.47.07,2.78-.64,3.93Z"/>
    <path class="st153" d="M76.61,151.66c.31-1.09.27-2.34.15-3.56-.08-.85.43-1.31.46-2.02l.14-3.44c.03-.81.63-1.53.42-2.48-.25-1.13.4-1.95.43-2.89l.1-3.75c.02-.89.82-1.81.48-2.85-.92.8-1.15,1.64-1.78,2.29.11-1.06.89-1.93,1.67-2.64.53-.49.89-1.08,1.65-1.63.07,1.06-.28,1.97-.58,2.96s.26,2.26-.08,3.2c-.55,1.49-.28,2.88-.55,4.34-.43,2.36-.75,8.01-.86,8.71l-.26,1.62c-.1.65-.86,1.73-1.4,2.15Z"/>
    <path class="st154" d="M74.62,138.24c.24-.58.14-1.35.71-1.7-.18.6-.04,1.47-.71,1.7Z"/>
    <path class="st145" d="M85.22,121.97c.28-.45.64-.63.96-1.01-.03.53-.44.96-.96,1.01Z"/>
    <path class="st52" d="M87.08,147.76c-.22-.01-.59.08-.63-.1-.2-.96.95-6.29.43-7.19-.46.02-.41-.11-.03-.36-.01-.05,0-.13,0-.18.33-.35.66-.6.98-.74.35.22.57.51.47.91l-.77,6.27c.19.8.03,1.26-.47,1.38Z"/>
    <path class="st112" d="M86.86,140.11c.03.1-.03.26.03.36-.22.06-.32.26-.48.39-.65,2.12-1.02,4.35-1.11,6.7.17.55.05.93-.35,1.13-.06.46-.51.48-.81.18-.33-.33.06-3.75.15-4.53.04-.34.12-.66.23-.98.41-.48.62-1.23.96-1.76.38-.59.64-1.41,1.38-1.49Z"/>
    <path class="st155" d="M88.32,138.48c.25.49.07.76-.48.72-.25.35-.5.79-.98.74.3-.7.94-1.23,1.46-1.69.16.07.15.15,0,.24Z"/>
    <path class="st52" d="M89.28,137.51c-.28.13-.9.59-.69.97.05.46-.14.46-.27,0v-.24c.1-.57.63-.81.97-1.21v.48Z"/>
    <path class="st27" d="M137.51,118.31l-16.09,19.4-1.13,1.33-15.78,18.97-2.73,3.1c-.44.48-.77.53-.98.16.4-3.92.81-7.81,1.24-11.66.45-3.4.85-6.79,1.19-10.18.06-.38.13-.79.21-1.23.08-.56.43-.82.86-1.33l28.46-34.08,6.25-7.46c.21-.25.87-.38.86-.07-.24.69-.64,1.29-.2,1.99.29.46-.38,1-.3,1.29.24.85-.32,1.5-.28,2.23.04.83.04,1.38-.1,2.17-.62,3.42-.15,1.71-.49,4.41-.07.59-.39,1.49-.35,2.02.07.97-.17,1.45-.24,2.32l-.18,2.3c-.06.78.11,1.41-.34,2.24-.21.39.36,1.26-.47,1.62l.59.47Z"/>
    <path class="st46" d="M101.77,161.11c-.36.41-.49,1.03-1,1.33-.13-.29-.42-.35-.36-.92l.88-8.4c.59-4.37,1.03-8.77,1.32-13.19.15-.39.36-.56.63-.5l-.07,3.11c-.03,1.46-.64,2.82-.37,4.33-.68,1.39-.39,2.87-.62,4.3-.2,1.25-.41,2.36-.43,3.64-.04,2.11-.42,4.11-.58,6.3-.01.19.46.02.61,0Z"/>
    <path class="st12" d="M148.55,105.13c.06-.71.79-1.06,1.28-1.63s.75-1.26,1.39-1.51c-.74,1.13-1.49,2.38-2.67,3.14Z"/>
    <path class="st135" d="M103.22,139.43c-.32.38-.64,1.04-.52,1.67.28,1.4-.32,2.58-.39,3.87-.08,1.59-.19,2.99-.53,4.55-.26,1.22.29,2.63-.52,3.6.17-1.61.07-3.12.37-4.85.25-1.41.15-2.85.52-4.31.29-1.18-.13-2.47.31-3.56-.49.05-.55-.1-.21-.47-.11-.43.29-.8.67-1.02.09-.25.44-.47.5-.71.08,0,.51.07.44.25-.15.43-.43.72-.65.98Z"/>
    <path class="st135" d="M102,140.16c.15.33-.28,1.25-.73.99-.21.59-.89,2.11-1.66,1.67.02-.08-.02-.17,0-.25.52-.83,1.42-1.86,2.16-2.4.07-.11.15-.11.24,0Z"/>
    <path class="st125" d="M102.93,138.91c-.13.39-.47.67-.67,1.02.16.31.04.43-.27.23h-.24c.29-.37.42-1.31,1.17-1.25Z"/>
    <path class="st95" d="M71.28,78.72v-18.47c-.01-.47.3-.59.5-.73l-.02,18.7c-.09.32-.27.47-.48.51Z"/>
    <path class="st152" d="M92.82,173.69c-2.05,5.25-2.58,10.48-1.62,15.69.48.06.46.28-.02.42-.05.05-.07.15-.2.19-.84-1.05-2.08-1.78-2.45-2.99.16-.43.38-.52.71-.23.37-1.93.56-3.89.58-5.86.69-4.68,1.21-9.37,1.58-14.08.3-2.1.62-4.19.95-6.28-.23-1.56.08-2.92.44-4.42-.21-1.81.02-3.43.68-4.86.28-.3.57-1.11,1.14-1.22.92.42.1,1.64.06,2.38l-.19,3.5c-.04.81-.57,1.54-.4,2.46.19,1.07-.36,1.93-.4,2.88l-.13,3.29c-.01.29-.41.51-.43.81-.09,1.43.13,2.8-.05,4.24-.06.5-.52.91-.44,1.49.23,1.62-.84,2.52.18,2.58Z"/>
    <path class="st59" d="M93.35,189.35c-.19.63-.7,1.11-1.21,1.51-.96-.22-.2-.68-.95-1.07,0-.14.03-.28.02-.42-1.39-5.23-.09-10.92,1.91-15.86.17-.74.5-1.46.99-2.16l.38-.2c.8-.42.9-2.06,1.31-1.12.18.42-1.08,1.18-.73,2.49.21.77-.44,1.17-.46,1.77l-.09,3.3c-.03.97-.62,1.74-.44,2.91.13.85.14,1.77-.52,2.41l.1,4c-.74.71-.72,1.68-.32,2.44Z"/>
    <path class="st135" d="M86.09,182.84s0-.1.01-.14c-.08-.63-.24-.89-.47-.78,0-.07-.04-.17-.03-.24-.24-.38-.28-.94.15-1.19-.12-.07-.22-.14-.23-.22-.06-.48-.1-1.81-.08-2.35.46-3.71.92-7.44,1.39-11.17l.66-7.78c.21-.34.23-.64.06-.91.25-.41.27-1.33.94-1.41l1.05-.86c.05-.11.11-.22.2-.27,1.1-.69.65,3.04.28,3.54-.09,2.81-.45,5.66-.94,8.4-.11,3.05-.47,6.04-.97,9.02,0,.9-.52,7.35-.83,7.58-.66.5-.84-.43-.92-1.01l-.28-.22Z"/>
    <path class="st154" d="M85.75,180.49c-.18.55-.38.63-.59.24-.14-.12-.15-.34-.26-.47.15-.71.08-1.03-.2-.98-.1-.13-.18-.33-.24-.48v-1.74c1.03-1.16.21-3,.6-4.25,1.04-3.41-.24-2.59.8-5.61.37-1.07-.24-2.32.22-3.34.2-.45.41-.95.39-1.46-.01-.29-.71-.5-.82-.83.42-1.33,1.02-2.66,1.92-3.5.19.04.37-.02.77.16-.51.81-.56,1.82-.45,2.8.1.89-.38,1.49-.42,2.26l-.17,3.98c.11-2.6-.92,7.82-.79,5.07l-.16,3.31c-.05.98-.53,1.8-.42,2.93.07.7.21,1.42-.17,1.92Z"/>
    <path class="st131" d="M90.77,154.37c.57.26.77.92.58,2-.65,3.3-.96,6.64-1.05,10.01-.43,1.15-.56,2.37-.39,3.65-.5,1.48-.55,2.73-.43,4.29-.57,1.59-.61,3.06-.57,4.73-.45,1.27-.6,2.63-.46,4.06-.23,1.65-.7,2.17-1.39,1.55-.61-.35-.94-1.13-.97-1.82.21-.16.47-.31.53-.05s-.11.48.15.82c-.06,2.67.9-6.7.75-3.51l.17-3.65c.05-.99.55-1.88.4-2.94s.37-1.94.42-2.92l.14-3.03c.05-.97.56-1.88.39-2.93-.15-.94.4-1.64.43-2.46l.14-3.26c-.02.4,1.04-3.02-.05-3.12-.16.18-.26.15-.3-.09.38-.42.59-.98.94-1.42.43-.35.62-.33.58.06Z"/>
    <path class="st25" d="M88.53,187c-.56-.27-.89-.85-.97-1.46-.08-.68.2-.76.49-.13l.48.04c.77-1.56.72-3.36.62-5.03.44-1.44.62-2.96.54-4.54.42-1.4.59-2.83.49-4.31.46-3.69.93-7.39,1.41-11.08-.12-1.45.03-2.92.45-4.39l-.09-2.31-.49-.1c.01.8-.22,1.02-.71.68l-.58-.06,1.96-2.42c.13-.16.44-.24.54-.45.2-.07.6.05.78-.15.44.51-.08,1.1-.22,1.67-.32,1.28.24,2.7-.21,3.98-.93,2.61.31,2.22-.73,5.36-.34,1.03.21,2.25-.21,3.29-.99,2.46.3,1.01-.78,5.11-.32,1.19.26,2.53-.21,3.71-.19.48-.52.91-.36,1.5.39,1.47-.53,4.11-.68,6.24l-.37,5.39c-.72-.21-.8-.56-1.17-.53Z"/>
    <path class="st88" d="M88.05,185.42c-.17-.08-.33.06-.49.13-.38-.12-.57-.5-.5-.89,1.72-.11.68-2.82,1.1-4.11,1.04-3.17-.3-3.23.87-5.18v-3.51c1.19-1.62-.22-3.85.97-5.56l-.02-3.54c1.12-2.08-.06-2.61.8-5.06.36-1.03.26-2.36-.02-3.33l.71-.68c.76.17.65,1.66.58,2.37-.43,1.48-.58,2.95-.45,4.41-.49,3.73-.97,7.47-1.43,11.22.12,1.39-.03,2.71-.47,3.94l-.14,3.53c-.45,1.19-.56,2.47-.34,3.84-.08.67-.49,2.44-1.17,2.43Z"/>
    <path class="st135" d="M84.46,178.8c-.24-.55-.42-1.25.01-1.74.38.42.48,1.37-.01,1.74Z"/>
    <path class="st88" d="M89.55,155.8c-.1.54-.55.8-1.05.86.01-.47.48-.64.75-.94.1.02.2.08.3.09Z"/>
    <path class="st135" d="M84.9,180.26c-.23-.28-.21-.63-.2-.98.19-.03.36-.34.5-.12.02.57.1,1.01-.3,1.1Z"/>
    <path class="st131" d="M85.6,181.68c-.37-.14-.4-.59-.44-.94l.59-.24-.15,1.19Z"/>
    <path class="st131" d="M86.1,182.7c-.23.22-.34-.1-.38-.23-.07-.2-.09-.38-.1-.55.17-.03.28-.15.49-.25.1.46,0,.73-.02,1.04Z"/>
    <path class="st37" d="M96.84,186.02c-.07.93-1.41,1.52-1.89,2.14-.42-.44.24-.74.17-.94-.29-.76.19-1.15.35-1.76.33-1.29-.15-2.66.06-3.96.05-.32.41-.53.48-.84.25-1.12-.29-2.38.09-3.46,1.15-3.28-.35-1.58.83-5.36.33-1.07-.16-2.28.03-3.36.09-.49.68-.75.7-1.26.01-.29-.53-.1-.68,0,.41-.44.71-1.11.97-1.64-.28-.55-.18-.66.42-.68.05-.39.1-.51.38-.2.53.07.65.44.68.77.05.54-.43.79-.45,1.21l-.17,3.62c-.04.82-.61,1.52-.4,2.48.23,1.05-.08,1.85-.39,2.73-.42,1.22.49,2.82-.1,3.92l-.46.86c-.57,1.06.41,2.78-.14,3.83-.4.77-.42,1.15-.48,1.88Z"/>
    <path class="st11" d="M101.28,141.84l-.4,1.66c-.71,7.09-1.49,14.17-2.34,21.24l-.18.19c.03.31-.25.49-.42.68-.77.35-.9,1.26-2.11,2.14-.4-1.54.19-2.87.34-4.31s0-2.75.49-4.15c.3-.83-.15-1.87.1-2.74.29-1.05.59-2.06.41-3.17-.13-.79.37-1.35.4-2.03l.21-4.13c.02-.35.44-.6.39-.88-.04-.21-.56-.67-.46-.89.47-1.04,1.59-1.6,1.88-2.63l1.66-1.67c.64-.35.62.73.01.69Z"/>
    <path class="st25" d="M91.21,189.38c-.14,0-.28-.17-.34-.39-1.17-4.91.27-10.79,1.95-15.3.02-.06-.01-.14.02-.19.12-.24.2-.23.28.02-1.15,3.45-2.16,6.83-2.32,10.64-.07,1.78.3,3.51.41,5.22Z"/>
    <path class="st152" d="M93.12,173.52l-.28-.02c.38-.73.54-1.76,1.26-2.14.05.83-.74,1.42-.99,2.16Z"/>
    <path class="st104" d="M69.55,62.13c-.21,0-.41.49-.41.81l-.03,17.91c0,.49-.32.92-.03,1.24-.25.18-.3.59-.75.85l.09-19.55c0-.23-.14-.25-.21-.28.23-.58.74-.94,1.27-1.31.04.16.08.25.08.33Z"/>
    <path class="st123" d="M67.42,84.29c-.15.25-.24.58-.76.71-.09-.64-.17-1.25-.17-1.97l-.03-17.06c-.01-.73,1-.92.27-.92.11-.26.33-.69.66-.72.12.37-.17.74-.17,1.22l-.02,18.11c0,.18-.12.3-.08.44.04.12.14.21.32.19Z"/>
    <path class="st129" d="M70.8,80.16c-.08.32-.44.45-.66.63l-.07-18.6c0-.55.26-1,.22-1.43-.02-.17.03-.35.03-.52.35.01.45.3.45.72l.04,18.36c0,.33-.51.83,0,.83Z"/>
    <path class="st94" d="M88.08,147.31c-.07.18-.15.36-.24.53-.25,0-.51-.06-.76-.08l.35-3.03c.22-1.92.54-3.71.42-5.53.16-.23.32-.47.48-.72h.27c.57,1.04-.07,2.19-.19,3.4-.15,1.48-.08,2.89-.52,4.34-.12.4.09.82.2,1.09Z"/>
    <path class="st63" d="M84.95,148.69c.15-.6.38-.68.75-.14l-.02.49c-.25-.03-.5-.05-.79.03-.18.05-.13.25-.2.42-2.08-.1-.66-2.94-.74-4.5-.04-.88.14-1.15.56-1.63.28.02-.16,4.45-.22,4.96-.04.36.47.33.65.38Z"/>
    <path class="st57" d="M86.65,148.06v.5c-.31.06-.66-.09-.95,0-.24.06-.48.22-.75.14-.16-1.54.3-3.06.41-4.69.09-1.23.12-2.35,1.04-3.15l-.75,6.73c-.04.33.17.6.4.68.2.07.39-.22.6-.21Z"/>
    <path class="st68" d="M102.48,140.4c-.35.2-.49.69-.53,1.18l-.66,6.75-.46,3.84-1.19,10.99c-.06.58-.35,1.05-.75,1.26l-.27-.1,2.27-20.84.4-1.64c.02-.23.33-.56-.01-.69.24-.24.45-.77.73-.99.08-.06.22-.14.27-.23.05.12.27.33.21.47Z"/>
    <path class="st17" d="M98.88,164.42c-.07.08-.07.23-.14.3-.1.09-.26.12-.38.2-.11-.94.15-1.85.27-2.9l1.91-17.73c.1-.93.18-1.86.73-2.45l-.74,7.69-1.66,14.89Z"/>
    <path class="st25" d="M88.05,185.42l.69-2.07c.36-1.07-.07-2.22.09-3.34.05-.36.45-.61.46-.97l.02-3.53.46-.79c.55-.93-.25-2.42.08-3.51.2-.65.6-1.17.42-2.01-.24-1.11.31-2.09.37-3.12l.19-3.79c.04-.88.54-1.69.37-2.68-.35-1.95,1.11-2.46.28-5.92.42-.4.57-.91,1.22-1.32-.48,1.42-.17,2.71-.35,4.11-.14,1.09-.71,2.16-.41,3.35s-.39,2.12-.4,3.12c-.02,1.47-.3,2.75-.45,4.14l-.49,4.52c-.16,1.48-.26,2.87-.51,4.33s.05,2.88-.51,4.34c-.38.99.25,2.27-.06,3.28-.27.89-.62,1.67-.52,2.75-.57.11-.87-.47-.95-.88Z"/>
  </g>
</svg>