<svg xmlns="http://www.w3.org/2000/svg" viewBox="0 0 120 120" preserveAspectRatio="none">
  <g fill="#fff" fill-opacity=".12">
    <circle cx="4" cy="8" r="1" />
    <circle cx="18" cy="23" r="1" />
    <circle cx="33" cy="9" r="1" />
    <circle cx="47" cy="28" r="1" />
    <circle cx="62" cy="11" r="1" />
    <circle cx="74" cy="31" r="1" />
    <circle cx="88" cy="14" r="1" />
    <circle cx="103" cy="26" r="1" />
    <circle cx="9" cy="42" r="1" />
    <circle cx="22" cy="56" r="1" />
    <circle cx="37" cy="45" r="1" />
    <circle cx="51" cy="60" r="1" />
    <circle cx="66" cy="49" r="1" />
    <circle cx="79" cy="63" r="1" />
    <circle cx="93" cy="46" r="1" />
    <circle cx="109" cy="58" r="1" />
    <circle cx="5" cy="75" r="1" />
    <circle cx="20" cy="89" r="1" />
    <circle cx="34" cy="77" r="1" />
    <circle cx="48" cy="93" r="1" />
    <circle cx="63" cy="81" r="1" />
    <circle cx="76" cy="98" r="1" />
    <circle cx="90" cy="84" r="1" />
    <circle cx="104" cy="97" r="1" />
    <circle cx="12" cy="108" r="1" />
    <circle cx="27" cy="116" r="1" />
    <circle cx="42" cy="106" r="1" />
    <circle cx="57" cy="118" r="1" />
    <circle cx="71" cy="109" r="1" />
    <circle cx="85" cy="117" r="1" />
    <circle cx="100" cy="108" r="1" />
    <circle cx="114" cy="116" r="1" />
  </g>
</svg>
